<svg xmlns="http://www.w3.org/2000/svg" viewBox="0 0 1280 720" width="1280" height="720">
    
    <defs>
        <filter id="cardShadow2" x="-15%" y="-15%" width="130%" height="130%">
            <feGaussianBlur in="SourceAlpha" stdDeviation="4" />
            <feOffset dx="0" dy="2" result="offsetblur" />
            <feFlood flood-color="#0D2137" flood-opacity="0.06" result="shadowColor" />
            <feComposite in="shadowColor" in2="offsetblur" operator="in" result="shadow" />
            <feMerge><feMergeNode in="shadow" /><feMergeNode in="SourceGraphic" /></feMerge>
        </filter>
        <linearGradient id="pillarHead1" x1="0%" y1="0%" x2="100%" y2="0%">
            <stop offset="0%" stop-color="#1E88E5" />
            <stop offset="100%" stop-color="#42A5F5" />
        </linearGradient>
        <linearGradient id="pillarHead2" x1="0%" y1="0%" x2="100%" y2="0%">
            <stop offset="0%" stop-color="#F44336" />
            <stop offset="100%" stop-color="#EF5350" />
        </linearGradient>
        <linearGradient id="pillarHead3" x1="0%" y1="0%" x2="100%" y2="0%">
            <stop offset="0%" stop-color="#FF9800" />
            <stop offset="100%" stop-color="#FFA726" />
        </linearGradient>
    </defs>

    
    <rect width="1280" height="720" fill="#FFFFFF" />

    
    <path fill="#0D47A1" d="M44,32 H44 A4,4 0 0 1 48,36 V64 A4,4 0 0 1 44,68 H44 A4,4 0 0 1 40,64 V36 A4,4 0 0 1 44,32 Z" />
    <text x="64" y="60" font-family="Microsoft YaHei, PingFang SC, Arial, sans-serif" font-size="32" font-weight="bold" fill="#0D47A1">平台关键功能详解</text>
    <text x="64" y="88" font-family="Microsoft YaHei, PingFang SC, Arial, sans-serif" font-size="14" fill="#616161" letter-spacing="0.5">实时状态监控 · 异常告警 · 故障排查溯源</text>

    
    <g id="pillar1">
        <g filter="url(#cardShadow2)">
            <path fill="#FFFFFF" stroke="#E0E0E0" stroke-width="1" d="M52,115 H408 A12,12 0 0 1 420,127 V643 A12,12 0 0 1 408,655 H52 A12,12 0 0 1 40,643 V127 A12,12 0 0 1 52,115 Z" />
        </g>

        
        <path fill="url(#pillarHead1)" d="M52,115 H408 A12,12 0 0 1 420,127 V159 A12,12 0 0 1 408,171 H52 A12,12 0 0 1 40,159 V127 A12,12 0 0 1 52,115 Z" />
        <rect x="40" y="147" width="380" height="24" fill="url(#pillarHead1)" />
        
  <g transform="translate(60.0, 127.0) scale(1.3333333333333333)" fill="none" stroke="#FFFFFF" stroke-width="2">
    <path d="M10 12a2 2 0 1 0 4 0a2 2 0 0 0 -4 0" />
    <path d="M21 12c-2.4 4 -5.4 6 -9 6c-3.6 0 -6.6 -2 -9 -6c2.4 -4 5.4 -6 9 -6c3.6 0 6.6 2 9 6" />
  </g>
        <text x="102" y="150" font-family="Microsoft YaHei, PingFang SC, Arial, sans-serif" font-size="20" font-weight="bold" fill="#FFFFFF">实时状态查看功能</text>

        
        <rect x="56" y="190" width="348" height="1" fill="#E0E0E0" />
        <text x="56" y="215" font-family="Microsoft YaHei, PingFang SC, Arial, sans-serif" font-size="14" font-weight="bold" fill="#0D47A1">核心页面</text>
        <circle cx="68" cy="240" r="4" fill="#1E88E5" />
        <text x="82" y="244" font-family="Microsoft YaHei, PingFang SC, Arial, sans-serif" font-size="15" fill="#1A1A1A">机器人总览看板</text>
        <circle cx="68" cy="266" r="4" fill="#1E88E5" />
        <text x="82" y="270" font-family="Microsoft YaHei, PingFang SC, Arial, sans-serif" font-size="15" fill="#1A1A1A">单机器人详情页</text>
        <circle cx="68" cy="292" r="4" fill="#1E88E5" />
        <text x="82" y="296" font-family="Microsoft YaHei, PingFang SC, Arial, sans-serif" font-size="15" fill="#1A1A1A">任务运行日志</text>

        
        <rect x="56" y="316" width="348" height="1" fill="#E0E0E0" />
        <text x="56" y="341" font-family="Microsoft YaHei, PingFang SC, Arial, sans-serif" font-size="14" font-weight="bold" fill="#0D47A1">数据刷新</text>
        <path fill="#1E88E5" fill-opacity="0.1" d="M62,355 H130 A6,6 0 0 1 136,361 V379 A6,6 0 0 1 130,385 H62 A6,6 0 0 1 56,379 V361 A6,6 0 0 1 62,355 Z" />
        <text x="96" y="375" text-anchor="middle" font-family="Arial, sans-serif" font-size="18" font-weight="bold" fill="#1E88E5">2秒</text>
        <text x="148" y="375" font-family="Microsoft YaHei, PingFang SC, Arial, sans-serif" font-size="15" fill="#616161">轮询刷新，实时同步运行状态</text>

        
        <rect x="56" y="400" width="348" height="1" fill="#E0E0E0" />
        <text x="56" y="425" font-family="Microsoft YaHei, PingFang SC, Arial, sans-serif" font-size="14" font-weight="bold" fill="#0D47A1">任务台账</text>
        <circle cx="68" cy="450" r="4" fill="#1565C0" />
        <text x="82" y="454" font-family="Microsoft YaHei, PingFang SC, Arial, sans-serif" font-size="15" fill="#1A1A1A">自动记录任务开始/结束时间</text>
        <circle cx="68" cy="476" r="4" fill="#1565C0" />
        <text x="82" y="480" font-family="Microsoft YaHei, PingFang SC, Arial, sans-serif" font-size="15" fill="#1A1A1A">运行结果：正常完成 / 异常终止</text>

        
        <path fill="#1565C0" fill-opacity="0.1" d="M60,508 H124 A4,4 0 0 1 128,512 V530 A4,4 0 0 1 124,534 H60 A4,4 0 0 1 56,530 V512 A4,4 0 0 1 60,508 Z" />
        <text x="92" y="526" text-anchor="middle" font-family="Microsoft YaHei, Arial, sans-serif" font-size="15" fill="#1565C0">空闲</text>
        <path fill="#1E88E5" fill-opacity="0.1" d="M142,508 H206 A4,4 0 0 1 210,512 V530 A4,4 0 0 1 206,534 H142 A4,4 0 0 1 138,530 V512 A4,4 0 0 1 142,508 Z" />
        <text x="174" y="526" text-anchor="middle" font-family="Microsoft YaHei, Arial, sans-serif" font-size="15" fill="#1E88E5">执行任务</text>
        <path fill="#FF9800" fill-opacity="0.1" d="M224,508 H288 A4,4 0 0 1 292,512 V530 A4,4 0 0 1 288,534 H224 A4,4 0 0 1 220,530 V512 A4,4 0 0 1 224,508 Z" />
        <text x="256" y="526" text-anchor="middle" font-family="Microsoft YaHei, Arial, sans-serif" font-size="15" fill="#FF9800">暂停</text>
        <path fill="#F44336" fill-opacity="0.1" d="M306,508 H370 A4,4 0 0 1 374,512 V530 A4,4 0 0 1 370,534 H306 A4,4 0 0 1 302,530 V512 A4,4 0 0 1 306,508 Z" />
        <text x="338" y="526" text-anchor="middle" font-family="Microsoft YaHei, Arial, sans-serif" font-size="15" fill="#F44336">异常停机</text>
    </g>

    
    <g id="pillar2">
        <g filter="url(#cardShadow2)">
            <path fill="#FFFFFF" stroke="#E0E0E0" stroke-width="1" d="M462,115 H818 A12,12 0 0 1 830,127 V643 A12,12 0 0 1 818,655 H462 A12,12 0 0 1 450,643 V127 A12,12 0 0 1 462,115 Z" />
        </g>

        
        <path fill="url(#pillarHead2)" d="M462,115 H818 A12,12 0 0 1 830,127 V159 A12,12 0 0 1 818,171 H462 A12,12 0 0 1 450,159 V127 A12,12 0 0 1 462,115 Z" />
        <rect x="450" y="147" width="380" height="24" fill="url(#pillarHead2)" />
        
  <g transform="translate(470.0, 127.0) scale(1.3333333333333333)" fill="none" stroke="#FFFFFF" stroke-width="2">
    <path d="M12 9v4" />
    <path d="M10.363 3.591l-8.106 13.534a1.914 1.914 0 0 0 1.636 2.871h16.214a1.914 1.914 0 0 0 1.636 -2.87l-8.106 -13.536a1.914 1.914 0 0 0 -3.274 0" />
    <path d="M12 16h.01" />
  </g>
        <text x="512" y="150" font-family="Microsoft YaHei, PingFang SC, Arial, sans-serif" font-size="20" font-weight="bold" fill="#FFFFFF">异常告警模块</text>

        
        <rect x="466" y="190" width="348" height="1" fill="#E0E0E0" />
        <text x="466" y="215" font-family="Microsoft YaHei, PingFang SC, Arial, sans-serif" font-size="14" font-weight="bold" fill="#0D47A1">告警触发流程</text>

        
        <path fill="#F44336" fill-opacity="0.06" d="M472,230 H808 A6,6 0 0 1 814,236 V266 A6,6 0 0 1 808,272 H472 A6,6 0 0 1 466,266 V236 A6,6 0 0 1 472,230 Z" />
        <text x="476" y="248" font-family="Microsoft YaHei, PingFang SC, Arial, sans-serif" font-size="12" font-weight="bold" fill="#F44336">STEP 1</text>
        <text x="536" y="248" font-family="Microsoft YaHei, PingFang SC, Arial, sans-serif" font-size="15" fill="#1A1A1A">机器人触发故障</text>

        
        <line x1="640" y1="272" x2="640" y2="284" stroke="#F44336" stroke-width="1.5" />
        <polygon points="636,284 644,284 640,290" fill="#F44336" />

        
        <path fill="#F44336" fill-opacity="0.06" d="M472,294 H808 A6,6 0 0 1 814,300 V330 A6,6 0 0 1 808,336 H472 A6,6 0 0 1 466,330 V300 A6,6 0 0 1 472,294 Z" />
        <text x="476" y="312" font-family="Microsoft YaHei, PingFang SC, Arial, sans-serif" font-size="12" font-weight="bold" fill="#F44336">STEP 2</text>
        <text x="536" y="312" font-family="Microsoft YaHei, PingFang SC, Arial, sans-serif" font-size="15" fill="#1A1A1A">后端识别异常</text>

        
        <line x1="640" y1="336" x2="640" y2="348" stroke="#F44336" stroke-width="1.5" />
        <polygon points="636,348 644,348 640,354" fill="#F44336" />

        
        <path fill="#F44336" fill-opacity="0.1" d="M472,358 H808 A6,6 0 0 1 814,364 V394 A6,6 0 0 1 808,400 H472 A6,6 0 0 1 466,394 V364 A6,6 0 0 1 472,358 Z" />
        <text x="476" y="376" font-family="Microsoft YaHei, PingFang SC, Arial, sans-serif" font-size="12" font-weight="bold" fill="#F44336">STEP 3</text>
        <text x="536" y="376" font-family="Microsoft YaHei, PingFang SC, Arial, sans-serif" font-size="15" fill="#1A1A1A">Web页面弹窗红色告警</text>

        
        <rect x="466" y="420" width="348" height="1" fill="#E0E0E0" />
        <text x="466" y="445" font-family="Microsoft YaHei, PingFang SC, Arial, sans-serif" font-size="14" font-weight="bold" fill="#0D47A1">告警通知方式</text>
        <circle cx="478" cy="470" r="4" fill="#F44336" />
        <text x="492" y="474" font-family="Microsoft YaHei, PingFang SC, Arial, sans-serif" font-size="15" fill="#1A1A1A">Web页面弹窗告警</text>
        <circle cx="478" cy="496" r="4" fill="#F44336" />
        <text x="492" y="500" font-family="Microsoft YaHei, PingFang SC, Arial, sans-serif" font-size="15" fill="#1A1A1A">短信推送通知</text>
        <circle cx="478" cy="522" r="4" fill="#F44336" />
        <text x="492" y="526" font-family="Microsoft YaHei, PingFang SC, Arial, sans-serif" font-size="15" fill="#1A1A1A">APP消息推送</text>

        
        <rect x="466" y="548" width="348" height="1" fill="#E0E0E0" />
        <text x="466" y="573" font-family="Microsoft YaHei, PingFang SC, Arial, sans-serif" font-size="14" font-weight="bold" fill="#0D47A1">告警附带信息</text>
        <path fill="#0D47A1" fill-opacity="0.06" d="M470,586 H562 A4,4 0 0 1 566,590 V608 A4,4 0 0 1 562,612 H470 A4,4 0 0 1 466,608 V590 A4,4 0 0 1 470,586 Z" />
        <text x="516" y="604" text-anchor="middle" font-family="Microsoft YaHei, Arial, sans-serif" font-size="15" fill="#0D47A1">故障代码</text>
        <path fill="#0D47A1" fill-opacity="0.06" d="M580,586 H672 A4,4 0 0 1 676,590 V608 A4,4 0 0 1 672,612 H580 A4,4 0 0 1 576,608 V590 A4,4 0 0 1 580,586 Z" />
        <text x="626" y="604" text-anchor="middle" font-family="Microsoft YaHei, Arial, sans-serif" font-size="15" fill="#0D47A1">发生时间</text>
        <path fill="#0D47A1" fill-opacity="0.06" d="M690,586 H782 A4,4 0 0 1 786,590 V608 A4,4 0 0 1 782,612 H690 A4,4 0 0 1 686,608 V590 A4,4 0 0 1 690,586 Z" />
        <text x="736" y="604" text-anchor="middle" font-family="Microsoft YaHei, Arial, sans-serif" font-size="15" fill="#0D47A1">任务编号</text>
    </g>

    
    <g id="pillar3">
        <g filter="url(#cardShadow2)">
            <path fill="#FFFFFF" stroke="#E0E0E0" stroke-width="1" d="M872,115 H1228 A12,12 0 0 1 1240,127 V643 A12,12 0 0 1 1228,655 H872 A12,12 0 0 1 860,643 V127 A12,12 0 0 1 872,115 Z" />
        </g>

        
        <path fill="url(#pillarHead3)" d="M872,115 H1228 A12,12 0 0 1 1240,127 V159 A12,12 0 0 1 1228,171 H872 A12,12 0 0 1 860,159 V127 A12,12 0 0 1 872,115 Z" />
        <rect x="860" y="147" width="380" height="24" fill="url(#pillarHead3)" />
        
  <g transform="translate(880.0, 127.0) scale(1.3333333333333333)" fill="none" stroke="#FFFFFF" stroke-width="2">
    <path d="M9 9v-1a3 3 0 0 1 6 0v1" />
    <path d="M8 9h8a6 6 0 0 1 1 3v3a5 5 0 0 1 -10 0v-3a6 6 0 0 1 1 -3" />
    <path d="M3 13l4 0" />
    <path d="M17 13l4 0" />
    <path d="M12 20l0 -6" />
    <path d="M4 19l3.35 -2" />
    <path d="M20 19l-3.35 -2" />
    <path d="M4 7l3.75 2.4" />
    <path d="M20 7l-3.75 2.4" />
  </g>
        <text x="922" y="150" font-family="Microsoft YaHei, PingFang SC, Arial, sans-serif" font-size="20" font-weight="bold" fill="#FFFFFF">故障排查溯源</text>

        
        <path fill="#FFFFFF" fill-opacity="0.3" d="M1092,130 H1128 A12,12 0 0 1 1140,142 V142 A12,12 0 0 1 1128,154 H1092 A12,12 0 0 1 1080,142 V142 A12,12 0 0 1 1092,130 Z" />
        <text x="1110" y="147" text-anchor="middle" font-family="Microsoft YaHei, Arial, sans-serif" font-size="12" font-weight="bold" fill="#FFFFFF">重点</text>

        
        <rect x="876" y="190" width="348" height="1" fill="#E0E0E0" />
        <text x="876" y="215" font-family="Microsoft YaHei, PingFang SC, Arial, sans-serif" font-size="14" font-weight="bold" fill="#0D47A1">在线初步诊断</text>

        <path fill="#FF9800" fill-opacity="0.04" stroke="#FF9800" stroke-width="0.5" stroke-dasharray="4 3" d="M884,228 H1216 A8,8 0 0 1 1224,236 V288 A8,8 0 0 1 1216,296 H884 A8,8 0 0 1 876,288 V236 A8,8 0 0 1 884,228 Z" />
        <text x="892" y="250" font-family="Microsoft YaHei, PingFang SC, Arial, sans-serif" font-size="15" fill="#1A1A1A">内置故障码数据库</text>
        <text x="892" y="272" font-family="Microsoft YaHei, PingFang SC, Arial, sans-serif" font-size="12" fill="#616161">报故障代码 → 自动匹配故障原因</text>
        <text x="892" y="290" font-family="Microsoft YaHei, PingFang SC, Arial, sans-serif" font-size="12" fill="#616161">（过载 / 伺服故障 / 通讯中断等）</text>

        
        <rect x="876" y="316" width="348" height="1" fill="#E0E0E0" />
        <text x="876" y="341" font-family="Microsoft YaHei, PingFang SC, Arial, sans-serif" font-size="14" font-weight="bold" fill="#0D47A1">历史数据复盘</text>

        <path fill="#1E88E5" fill-opacity="0.04" stroke="#1E88E5" stroke-width="0.5" stroke-dasharray="4 3" d="M884,354 H1216 A8,8 0 0 1 1224,362 V414 A8,8 0 0 1 1216,422 H884 A8,8 0 0 1 876,414 V362 A8,8 0 0 1 884,354 Z" />
        <path fill="#1E88E5" fill-opacity="0.1" d="M896,364 H952 A6,6 0 0 1 958,370 V384 A6,6 0 0 1 952,390 H896 A6,6 0 0 1 890,384 V370 A6,6 0 0 1 896,364 Z" />
        <text x="924" y="382" text-anchor="middle" font-family="Arial, sans-serif" font-size="14" font-weight="bold" fill="#1E88E5">5min</text>
        <text x="970" y="382" font-family="Microsoft YaHei, PingFang SC, Arial, sans-serif" font-size="15" fill="#1A1A1A">故障前实时参数曲线</text>
        <text x="892" y="410" font-family="Microsoft YaHei, PingFang SC, Arial, sans-serif" font-size="12" fill="#616161">对比正常工况，快速定位硬件/程序问题</text>

        
        <rect x="876" y="436" width="348" height="1" fill="#E0E0E0" />
        <text x="876" y="461" font-family="Microsoft YaHei, PingFang SC, Arial, sans-serif" font-size="14" font-weight="bold" fill="#0D47A1">故障分类统计</text>

        <path fill="#1565C0" fill-opacity="0.04" stroke="#1565C0" stroke-width="0.5" stroke-dasharray="4 3" d="M884,474 H1216 A8,8 0 0 1 1224,482 V534 A8,8 0 0 1 1216,542 H884 A8,8 0 0 1 876,534 V482 A8,8 0 0 1 884,474 Z" />
        <circle cx="892" cy="498" r="4" fill="#1565C0" />
        <text x="906" y="502" font-family="Microsoft YaHei, PingFang SC, Arial, sans-serif" font-size="15" fill="#1A1A1A">按月统计故障频次</text>
        <circle cx="892" cy="524" r="4" fill="#1565C0" />
        <text x="906" y="528" font-family="Microsoft YaHei, PingFang SC, Arial, sans-serif" font-size="15" fill="#1A1A1A">汇总高频故障，辅助预防性维护</text>

        
        <path fill="#0D47A1" fill-opacity="0.04" d="M884,558 H1216 A8,8 0 0 1 1224,566 V590 A8,8 0 0 1 1216,598 H884 A8,8 0 0 1 876,590 V566 A8,8 0 0 1 884,558 Z" />
        <text x="892" y="583" font-family="Microsoft YaHei, PingFang SC, Arial, sans-serif" font-size="12" fill="#0D47A1" font-weight="bold">无需去现场，即可定位故障诱因</text>
        <text x="1104" y="583" font-family="Microsoft YaHei, PingFang SC, Arial, sans-serif" font-size="12" fill="#616161">所有异常永久归档</text>
    </g>

    
    <text x="1220" y="700" text-anchor="end" font-family="Microsoft YaHei, Arial, sans-serif" font-size="12" fill="#9E9E9E">3 / 6</text>
</svg>