<svg xmlns="http://www.w3.org/2000/svg" viewBox="0 0 1280 720" width="1280" height="720">
    
    <defs>
        <filter id="cardShadow3" x="-15%" y="-15%" width="130%" height="130%">
            <feGaussianBlur in="SourceAlpha" stdDeviation="4" />
            <feOffset dx="0" dy="2" result="offsetblur" />
            <feFlood flood-color="#0D2137" flood-opacity="0.06" result="shadowColor" />
            <feComposite in="shadowColor" in2="offsetblur" operator="in" result="shadow" />
            <feMerge><feMergeNode in="shadow" /><feMergeNode in="SourceGraphic" /></feMerge>
        </filter>
        <marker id="arrowRight" markerWidth="10" markerHeight="10" refX="10" refY="5" orient="auto">
            <path d="M0,0 L10,5 L0,10 Z" fill="#0D47A1" />
        </marker>
    </defs>

    
    <rect width="1280" height="720" fill="#FFFFFF" />

    
    <path fill="#0D47A1" d="M44,32 H44 A4,4 0 0 1 48,36 V64 A4,4 0 0 1 44,68 H44 A4,4 0 0 1 40,64 V36 A4,4 0 0 1 44,32 Z" />
    <text x="64" y="60" font-family="Microsoft YaHei, PingFang SC, Arial, sans-serif" font-size="32" font-weight="bold" fill="#0D47A1">三级分层决策架构详解</text>
    <text x="64" y="88" font-family="Microsoft YaHei, PingFang SC, Arial, sans-serif" font-size="14" fill="#616161" letter-spacing="0.5">硬件安全兜底 → 大脑本地决策 → 平台辅助决策</text>

    
    <g id="level1">
        <path fill="#F44336" fill-opacity="0.04" stroke="#F44336" stroke-width="2" d="M52,110 H408 A12,12 0 0 1 420,122 V358 A12,12 0 0 1 408,370 H52 A12,12 0 0 1 40,358 V122 A12,12 0 0 1 52,110 Z" />
        <path fill="#F44336" d="M52,110 H408 A12,12 0 0 1 420,122 V142 A12,12 0 0 1 408,154 H52 A12,12 0 0 1 40,142 V122 A12,12 0 0 1 52,110 Z" />
        <rect x="40" y="134" width="380" height="20" fill="#F44336" />
        <text x="230" y="140" text-anchor="middle" font-family="Microsoft YaHei, PingFang SC, Arial, sans-serif" font-size="16" font-weight="bold" fill="#FFFFFF">① 硬件安全回路决策</text>
        <text x="230" y="165" text-anchor="middle" font-family="Microsoft YaHei, Arial, sans-serif" font-size="15" fill="#F44336">最高优先级 · 不经过大脑 · 纯硬件实现</text>

        
        <text x="56" y="195" font-family="Microsoft YaHei, Arial, sans-serif" font-size="12" font-weight="bold" fill="#0D47A1">触发场景</text>
        <g transform="translate(56, 205)">
            <path fill="#FFFFFF" stroke="#E0E0E0" stroke-width="1" d="M4,0 H161 A4,4 0 0 1 165,4 V24 A4,4 0 0 1 161,28 H4 A4,4 0 0 1 0,24 V4 A4,4 0 0 1 4,0 Z" />
            <circle cx="14" cy="14" r="4" fill="#F44336" />
            <text x="26" y="18" font-family="Microsoft YaHei, Arial, sans-serif" font-size="12" fill="#1A1A1A">急停按钮被按下</text>
        </g>
        <g transform="translate(232, 205)">
            <path fill="#FFFFFF" stroke="#E0E0E0" stroke-width="1" d="M4,0 H161 A4,4 0 0 1 165,4 V24 A4,4 0 0 1 161,28 H4 A4,4 0 0 1 0,24 V4 A4,4 0 0 1 4,0 Z" />
            <circle cx="14" cy="14" r="4" fill="#F44336" />
            <text x="26" y="18" font-family="Microsoft YaHei, Arial, sans-serif" font-size="12" fill="#1A1A1A">安全光栅/门触发</text>
        </g>
        <g transform="translate(56, 241)">
            <path fill="#FFFFFF" stroke="#E0E0E0" stroke-width="1" d="M4,0 H161 A4,4 0 0 1 165,4 V24 A4,4 0 0 1 161,28 H4 A4,4 0 0 1 0,24 V4 A4,4 0 0 1 4,0 Z" />
            <circle cx="14" cy="14" r="4" fill="#F44336" />
            <text x="26" y="18" font-family="Microsoft YaHei, Arial, sans-serif" font-size="12" fill="#1A1A1A">碰撞传感器硬触发</text>
        </g>
        <g transform="translate(232, 241)">
            <path fill="#FFFFFF" stroke="#E0E0E0" stroke-width="1" d="M4,0 H161 A4,4 0 0 1 165,4 V24 A4,4 0 0 1 161,28 H4 A4,4 0 0 1 0,24 V4 A4,4 0 0 1 4,0 Z" />
            <circle cx="14" cy="14" r="4" fill="#F44336" />
            <text x="26" y="18" font-family="Microsoft YaHei, Arial, sans-serif" font-size="12" fill="#1A1A1A">主电路过流/短路</text>
        </g>

        
        <path fill="#F44336" fill-opacity="0.1" d="M62,282 H398 A6,6 0 0 1 404,288 V314 A6,6 0 0 1 398,320 H62 A6,6 0 0 1 56,314 V288 A6,6 0 0 1 62,282 Z" />
        <text x="68" y="298" font-family="Microsoft YaHei, Arial, sans-serif" font-size="15" font-weight="bold" fill="#F44336">执行逻辑:</text>
        <text x="68" y="312" font-family="Microsoft YaHei, Arial, sans-serif" font-size="12" fill="#1A1A1A">硬件继电器直接断开动力电源 → 机器人瞬间停机</text>

        
        <path fill="#0D47A1" fill-opacity="0.03" d="M60,330 H400 A4,4 0 0 1 404,334 V354 A4,4 0 0 1 400,358 H60 A4,4 0 0 1 56,354 V334 A4,4 0 0 1 60,330 Z" />
        <text x="68" y="348" font-family="Microsoft YaHei, Arial, sans-serif" font-size="12" fill="#616161">大脑和平台只能接收"急停触发"信号，无法干预或取消</text>
    </g>

    
    <g id="level2">
        <path fill="#1E88E5" fill-opacity="0.04" stroke="#1E88E5" stroke-width="2" d="M462,110 H838 A12,12 0 0 1 850,122 V358 A12,12 0 0 1 838,370 H462 A12,12 0 0 1 450,358 V122 A12,12 0 0 1 462,110 Z" />
        <path fill="#1E88E5" d="M462,110 H838 A12,12 0 0 1 850,122 V142 A12,12 0 0 1 838,154 H462 A12,12 0 0 1 450,142 V122 A12,12 0 0 1 462,110 Z" />
        <rect x="450" y="134" width="400" height="20" fill="#1E88E5" />
        <text x="650" y="140" text-anchor="middle" font-family="Microsoft YaHei, PingFang SC, Arial, sans-serif" font-size="16" font-weight="bold" fill="#FFFFFF">② 机器人大脑本地决策</text>
        <text x="650" y="165" text-anchor="middle" font-family="Microsoft YaHei, Arial, sans-serif" font-size="15" fill="#1E88E5">90%以上运行异常 · 毫秒级响应 · 无需等待平台</text>

        
        <text x="466" y="195" font-family="Microsoft YaHei, Arial, sans-serif" font-size="12" font-weight="bold" fill="#0D47A1">异常分级处置</text>

        
        <path fill="#1E88E5" fill-opacity="0.1" d="M470,205 H830 A4,4 0 0 1 834,209 V225 A4,4 0 0 1 830,229 H470 A4,4 0 0 1 466,225 V209 A4,4 0 0 1 470,205 Z" />
        <text x="506" y="220" font-family="Microsoft YaHei, Arial, sans-serif" font-size="15" font-weight="bold" fill="#0D47A1">等级</text>
        <text x="580" y="220" font-family="Microsoft YaHei, Arial, sans-serif" font-size="15" font-weight="bold" fill="#0D47A1">典型场景</text>
        <text x="720" y="220" font-family="Microsoft YaHei, Arial, sans-serif" font-size="15" font-weight="bold" fill="#0D47A1">处置动作</text>

        
        <path fill="#1565C0" fill-opacity="0.08" d="M470,233 H830 A4,4 0 0 1 834,237 V259 A4,4 0 0 1 830,263 H470 A4,4 0 0 1 466,259 V237 A4,4 0 0 1 470,233 Z" />
        <path fill="#1565C0" d="M470,233 H498 A4,4 0 0 1 502,237 V259 A4,4 0 0 1 498,263 H470 A4,4 0 0 1 466,259 V237 A4,4 0 0 1 470,233 Z" />
        <text x="484" y="252" text-anchor="middle" font-family="Arial, sans-serif" font-size="12" font-weight="bold" fill="#FFFFFF">Ⅰ</text>
        <text x="514" y="244" font-family="Microsoft YaHei, Arial, sans-serif" font-size="15" font-weight="bold" fill="#1565C0">轻微</text>
        <text x="580" y="244" font-family="Microsoft YaHei, Arial, sans-serif" font-size="15" fill="#1A1A1A">网络丢包·温漂·噪声</text>
        <text x="720" y="244" font-family="Microsoft YaHei, Arial, sans-serif" font-size="15" fill="#1565C0">本地容错·继续运行</text>
        <text x="580" y="258" font-family="Microsoft YaHei, Arial, sans-serif" font-size="8" fill="#616161">仅上报日志</text>

        
        <path fill="#FF9800" fill-opacity="0.08" d="M470,267 H830 A4,4 0 0 1 834,271 V293 A4,4 0 0 1 830,297 H470 A4,4 0 0 1 466,293 V271 A4,4 0 0 1 470,267 Z" />
        <path fill="#FF9800" d="M470,267 H498 A4,4 0 0 1 502,271 V293 A4,4 0 0 1 498,297 H470 A4,4 0 0 1 466,293 V271 A4,4 0 0 1 470,267 Z" />
        <text x="484" y="286" text-anchor="middle" font-family="Arial, sans-serif" font-size="12" font-weight="bold" fill="#FFFFFF">Ⅱ</text>
        <text x="514" y="278" font-family="Microsoft YaHei, Arial, sans-serif" font-size="15" font-weight="bold" fill="#FF9800">中度</text>
        <text x="580" y="278" font-family="Microsoft YaHei, Arial, sans-serif" font-size="15" fill="#1A1A1A">负载超标·轨迹偏移</text>
        <text x="720" y="278" font-family="Microsoft YaHei, Arial, sans-serif" font-size="15" fill="#FF9800">暂停任务·等待指令</text>
        <text x="580" y="292" font-family="Microsoft YaHei, Arial, sans-serif" font-size="8" fill="#616161">上报异常代码·触发告警</text>

        
        <path fill="#F44336" fill-opacity="0.08" d="M470,301 H830 A4,4 0 0 1 834,305 V327 A4,4 0 0 1 830,331 H470 A4,4 0 0 1 466,327 V305 A4,4 0 0 1 470,301 Z" />
        <path fill="#F44336" d="M470,301 H498 A4,4 0 0 1 502,305 V327 A4,4 0 0 1 498,331 H470 A4,4 0 0 1 466,327 V305 A4,4 0 0 1 470,301 Z" />
        <text x="484" y="320" text-anchor="middle" font-family="Arial, sans-serif" font-size="12" font-weight="bold" fill="#FFFFFF">Ⅲ</text>
        <text x="514" y="312" font-family="Microsoft YaHei, Arial, sans-serif" font-size="15" font-weight="bold" fill="#F44336">严重</text>
        <text x="580" y="312" font-family="Microsoft YaHei, Arial, sans-serif" font-size="15" fill="#1A1A1A">超温·编码器中断</text>
        <text x="720" y="312" font-family="Microsoft YaHei, Arial, sans-serif" font-size="15" fill="#F44336">紧急停机·锁存数据</text>
        <text x="580" y="326" font-family="Microsoft YaHei, Arial, sans-serif" font-size="8" fill="#616161">上报紧急告警·故障寄存器</text>

        
        <path fill="#1E88E5" fill-opacity="0.06" d="M470,340 H830 A4,4 0 0 1 834,344 V358 A4,4 0 0 1 830,362 H470 A4,4 0 0 1 466,358 V344 A4,4 0 0 1 470,340 Z" />
        <text x="478" y="354" font-family="Microsoft YaHei, Arial, sans-serif" font-size="15" fill="#1E88E5" font-weight="bold">优势: 实时性(毫秒级) · 数据本地化 · 网络中断仍可保护</text>
    </g>

    
    <g id="level3">
        <path fill="#9C27B0" fill-opacity="0.04" stroke="#9C27B0" stroke-width="2" d="M892,110 H1228 A12,12 0 0 1 1240,122 V358 A12,12 0 0 1 1228,370 H892 A12,12 0 0 1 880,358 V122 A12,12 0 0 1 892,110 Z" />
        <path fill="#9C27B0" d="M892,110 H1228 A12,12 0 0 1 1240,122 V142 A12,12 0 0 1 1228,154 H892 A12,12 0 0 1 880,142 V122 A12,12 0 0 1 892,110 Z" />
        <rect x="880" y="134" width="360" height="20" fill="#9C27B0" />
        <text x="1060" y="140" text-anchor="middle" font-family="Microsoft YaHei, PingFang SC, Arial, sans-serif" font-size="16" font-weight="bold" fill="#FFFFFF">③ 平台辅助决策</text>
        <text x="1060" y="165" text-anchor="middle" font-family="Microsoft YaHei, Arial, sans-serif" font-size="15" fill="#9C27B0">复杂/隐性异常 · 历史数据分析 · 人工经验判断</text>

        
        <text x="896" y="195" font-family="Microsoft YaHei, Arial, sans-serif" font-size="12" font-weight="bold" fill="#0D47A1">平台处理的异常类型</text>

        <g transform="translate(896, 205)">
            <path fill="#FFFFFF" stroke="#E0E0E0" stroke-width="1" d="M4,0 H324 A4,4 0 0 1 328,4 V22 A4,4 0 0 1 324,26 H4 A4,4 0 0 1 0,22 V4 A4,4 0 0 1 4,0 Z" />
            <circle cx="14" cy="13" r="4" fill="#9C27B0" />
            <text x="26" y="17" font-family="Microsoft YaHei, Arial, sans-serif" font-size="12" fill="#1A1A1A">隐性劣化: 轴承磨损·齿轮老化·电机性能下降</text>
        </g>
        <g transform="translate(896, 235)">
            <path fill="#FFFFFF" stroke="#E0E0E0" stroke-width="1" d="M4,0 H324 A4,4 0 0 1 328,4 V22 A4,4 0 0 1 324,26 H4 A4,4 0 0 1 0,22 V4 A4,4 0 0 1 4,0 Z" />
            <circle cx="14" cy="13" r="4" fill="#9C27B0" />
            <text x="26" y="17" font-family="Microsoft YaHei, Arial, sans-serif" font-size="12" fill="#1A1A1A">复杂关联: 多机器人协同冲突·产线联动异常</text>
        </g>
        <g transform="translate(896, 265)">
            <path fill="#FFFFFF" stroke="#E0E0E0" stroke-width="1" d="M4,0 H324 A4,4 0 0 1 328,4 V22 A4,4 0 0 1 324,26 H4 A4,4 0 0 1 0,22 V4 A4,4 0 0 1 4,0 Z" />
            <circle cx="14" cy="13" r="4" fill="#9C27B0" />
            <text x="26" y="17" font-family="Microsoft YaHei, Arial, sans-serif" font-size="12" fill="#1A1A1A">疑难故障: 无明确代码·间歇性发作</text>
        </g>
        <g transform="translate(896, 295)">
            <path fill="#FFFFFF" stroke="#E0E0E0" stroke-width="1" d="M4,0 H324 A4,4 0 0 1 328,4 V22 A4,4 0 0 1 324,26 H4 A4,4 0 0 1 0,22 V4 A4,4 0 0 1 4,0 Z" />
            <circle cx="14" cy="13" r="4" fill="#9C27B0" />
            <text x="26" y="17" font-family="Microsoft YaHei, Arial, sans-serif" font-size="12" fill="#1A1A1A">跨系统协调: 与MES/ERP联动的异常</text>
        </g>

        
        <path fill="#9C27B0" fill-opacity="0.08" d="M900,330 H1220 A4,4 0 0 1 1224,334 V354 A4,4 0 0 1 1220,358 H900 A4,4 0 0 1 896,354 V334 A4,4 0 0 1 900,330 Z" />
        <text x="908" y="348" font-family="Microsoft YaHei, Arial, sans-serif" font-size="12" fill="#9C27B0" font-weight="bold">平台能力: 30天历史趋势 · 故障知识库 · 同型号对比</text>
    </g>

    
    <g id="flow">
        <path fill="#F8FAFC" stroke="#E0E0E0" stroke-width="1" d="M52,385 H1228 A12,12 0 0 1 1240,397 V513 A12,12 0 0 1 1228,525 H52 A12,12 0 0 1 40,513 V397 A12,12 0 0 1 52,385 Z" />
        <text x="60" y="415" font-family="Microsoft YaHei, Arial, sans-serif" font-size="14" font-weight="bold" fill="#0D47A1">平台与大脑的决策协同流程</text>

        
        <g transform="translate(60, 435)">
            <path fill="#1E88E5" fill-opacity="0.08" stroke="#1E88E5" stroke-width="1" d="M8,0 H172 A8,8 0 0 1 180,8 V62 A8,8 0 0 1 172,70 H8 A8,8 0 0 1 0,62 V8 A8,8 0 0 1 8,0 Z" />
            <text x="90" y="20" text-anchor="middle" font-family="Microsoft YaHei, Arial, sans-serif" font-size="15" font-weight="bold" fill="#1E88E5">Step 1</text>
            <text x="90" y="38" text-anchor="middle" font-family="Microsoft YaHei, Arial, sans-serif" font-size="12" fill="#1A1A1A">大脑上报异常</text>
            <text x="90" y="54" text-anchor="middle" font-family="Microsoft YaHei, Arial, sans-serif" font-size="15" fill="#616161">原始数据→平台</text>
        </g>

        <line x1="240" y1="470" x2="280" y2="470" stroke="#0D2137" stroke-width="1.5" marker-end="url(#arrowRight)" />

        <g transform="translate(290, 435)">
            <path fill="#9C27B0" fill-opacity="0.08" stroke="#9C27B0" stroke-width="1" d="M8,0 H172 A8,8 0 0 1 180,8 V62 A8,8 0 0 1 172,70 H8 A8,8 0 0 1 0,62 V8 A8,8 0 0 1 8,0 Z" />
            <text x="90" y="20" text-anchor="middle" font-family="Microsoft YaHei, Arial, sans-serif" font-size="15" font-weight="bold" fill="#9C27B0">Step 2</text>
            <text x="90" y="38" text-anchor="middle" font-family="Microsoft YaHei, Arial, sans-serif" font-size="12" fill="#1A1A1A">平台分析诊断</text>
            <text x="90" y="54" text-anchor="middle" font-family="Microsoft YaHei, Arial, sans-serif" font-size="15" fill="#616161">历史库·知识库</text>
        </g>

        <line x1="470" y1="470" x2="510" y2="470" stroke="#0D2137" stroke-width="1.5" marker-end="url(#arrowRight)" />

        <g transform="translate(520, 435)">
            <path fill="#FF9800" fill-opacity="0.08" stroke="#FF9800" stroke-width="1" d="M8,0 H172 A8,8 0 0 1 180,8 V62 A8,8 0 0 1 172,70 H8 A8,8 0 0 1 0,62 V8 A8,8 0 0 1 8,0 Z" />
            <text x="90" y="20" text-anchor="middle" font-family="Microsoft YaHei, Arial, sans-serif" font-size="15" font-weight="bold" fill="#FF9800">Step 3</text>
            <text x="90" y="38" text-anchor="middle" font-family="Microsoft YaHei, Arial, sans-serif" font-size="12" fill="#1A1A1A">运维确认决策</text>
            <text x="90" y="54" text-anchor="middle" font-family="Microsoft YaHei, Arial, sans-serif" font-size="15" fill="#616161">查看分析结果</text>
        </g>

        <line x1="700" y1="470" x2="740" y2="470" stroke="#0D2137" stroke-width="1.5" marker-end="url(#arrowRight)" />

        <g transform="translate(750, 435)">
            <path fill="#1565C0" fill-opacity="0.08" stroke="#1565C0" stroke-width="1" d="M8,0 H172 A8,8 0 0 1 180,8 V62 A8,8 0 0 1 172,70 H8 A8,8 0 0 1 0,62 V8 A8,8 0 0 1 8,0 Z" />
            <text x="90" y="20" text-anchor="middle" font-family="Microsoft YaHei, Arial, sans-serif" font-size="15" font-weight="bold" fill="#1565C0">Step 4</text>
            <text x="90" y="38" text-anchor="middle" font-family="Microsoft YaHei, Arial, sans-serif" font-size="12" fill="#1A1A1A">下发处置指令</text>
            <text x="90" y="54" text-anchor="middle" font-family="Microsoft YaHei, Arial, sans-serif" font-size="15" fill="#616161">复位·回零·调参</text>
        </g>

        <line x1="930" y1="470" x2="970" y2="470" stroke="#0D2137" stroke-width="1.5" marker-end="url(#arrowRight)" />

        <g transform="translate(980, 435)">
            <path fill="#1E88E5" fill-opacity="0.08" stroke="#1E88E5" stroke-width="1" d="M8,0 H172 A8,8 0 0 1 180,8 V62 A8,8 0 0 1 172,70 H8 A8,8 0 0 1 0,62 V8 A8,8 0 0 1 8,0 Z" />
            <text x="90" y="20" text-anchor="middle" font-family="Microsoft YaHei, Arial, sans-serif" font-size="15" font-weight="bold" fill="#1E88E5">Step 5</text>
            <text x="90" y="38" text-anchor="middle" font-family="Microsoft YaHei, Arial, sans-serif" font-size="12" fill="#1A1A1A">大脑执行反馈</text>
            <text x="90" y="54" text-anchor="middle" font-family="Microsoft YaHei, Arial, sans-serif" font-size="15" fill="#616161">执行结果→平台</text>
        </g>
    </g>

    
    <g id="thesis-points">
        <path fill="#0D47A1" fill-opacity="0.02" stroke="#E0E0E0" stroke-width="1" d="M50,540 H1230 A10,10 0 0 1 1240,550 V655 A10,10 0 0 1 1230,665 H50 A10,10 0 0 1 40,655 V550 A10,10 0 0 1 50,540 Z" />
        <text x="60" y="570" font-family="Microsoft YaHei, Arial, sans-serif" font-size="14" font-weight="bold" fill="#0D47A1">论文写作要点</text>

        <g transform="translate(60, 585)">
            <path fill="#F44336" fill-opacity="0.04" d="M6,0 H274 A6,6 0 0 1 280,6 V59 A6,6 0 0 1 274,65 H6 A6,6 0 0 1 0,59 V6 A6,6 0 0 1 6,0 Z" />
            <text x="12" y="18" font-family="Microsoft YaHei, Arial, sans-serif" font-size="15" font-weight="bold" fill="#F44336">硬件安全回路独立性</text>
            <text x="12" y="36" font-family="Microsoft YaHei, Arial, sans-serif" font-size="15" fill="#616161">• 独立于主控系统，是工业机器人</text>
            <text x="12" y="50" font-family="Microsoft YaHei, Arial, sans-serif" font-size="15" fill="#616161">  安全设计的强制性要求</text>
        </g>

        <g transform="translate(360, 585)">
            <path fill="#1E88E5" fill-opacity="0.04" d="M6,0 H274 A6,6 0 0 1 280,6 V59 A6,6 0 0 1 274,65 H6 A6,6 0 0 1 0,59 V6 A6,6 0 0 1 6,0 Z" />
            <text x="12" y="18" font-family="Microsoft YaHei, Arial, sans-serif" font-size="15" font-weight="bold" fill="#1E88E5">大脑本地决策必要性</text>
            <text x="12" y="36" font-family="Microsoft YaHei, Arial, sans-serif" font-size="15" fill="#616161">• 网络中断时仍需自主安全保护</text>
            <text x="12" y="50" font-family="Microsoft YaHei, Arial, sans-serif" font-size="15" fill="#616161">• 避免远程决策延迟导致故障扩大</text>
        </g>

        <g transform="translate(660, 585)">
            <path fill="#9C27B0" fill-opacity="0.04" d="M6,0 H274 A6,6 0 0 1 280,6 V59 A6,6 0 0 1 274,65 H6 A6,6 0 0 1 0,59 V6 A6,6 0 0 1 6,0 Z" />
            <text x="12" y="18" font-family="Microsoft YaHei, Arial, sans-serif" font-size="15" font-weight="bold" fill="#9C27B0">平台辅助决策价值</text>
            <text x="12" y="36" font-family="Microsoft YaHei, Arial, sans-serif" font-size="15" fill="#616161">• 弥补大脑算力/存储不足</text>
            <text x="12" y="50" font-family="Microsoft YaHei, Arial, sans-serif" font-size="15" fill="#616161">• 处理复杂隐性异常需要人工经验</text>
        </g>

        <g transform="translate(960, 585)">
            <path fill="#1565C0" fill-opacity="0.04" d="M6,0 H254 A6,6 0 0 1 260,6 V59 A6,6 0 0 1 254,65 H6 A6,6 0 0 1 0,59 V6 A6,6 0 0 1 6,0 Z" />
            <text x="12" y="18" font-family="Microsoft YaHei, Arial, sans-serif" font-size="15" font-weight="bold" fill="#1565C0">三层架构协同优势</text>
            <text x="12" y="36" font-family="Microsoft YaHei, Arial, sans-serif" font-size="15" fill="#616161">• 致命异常毫秒级响应</text>
            <text x="12" y="50" font-family="Microsoft YaHei, Arial, sans-serif" font-size="15" fill="#616161">• 复杂问题人工介入决策</text>
        </g>
    </g>

    
    <text x="1220" y="700" text-anchor="end" font-family="Microsoft YaHei, Arial, sans-serif" font-size="12" fill="#9E9E9E">4 / 6</text>
</svg>