<svg xmlns="http://www.w3.org/2000/svg" viewBox="0 0 1280 720" width="1280" height="720">
    
    <defs>
        <filter id="cardShadow" x="-15%" y="-15%" width="130%" height="130%">
            <feGaussianBlur in="SourceAlpha" stdDeviation="4" />
            <feOffset dx="0" dy="2" result="offsetblur" />
            <feFlood flood-color="#0D2137" flood-opacity="0.06" result="shadowColor" />
            <feComposite in="shadowColor" in2="offsetblur" operator="in" result="shadow" />
            <feMerge><feMergeNode in="shadow" /><feMergeNode in="SourceGraphic" /></feMerge>
        </filter>
    </defs>

    
    <rect width="1280" height="720" fill="#FFFFFF" />

    
    <path fill="#0D47A1" d="M44,32 H44 A4,4 0 0 1 48,36 V64 A4,4 0 0 1 44,68 H44 A4,4 0 0 1 40,64 V36 A4,4 0 0 1 44,32 Z" />
    <text x="64" y="60" font-family="Microsoft YaHei, PingFang SC, Arial, sans-serif" font-size="28" font-weight="bold" fill="#0D47A1">代码审查发现</text>
    <text x="64" y="86" font-family="Microsoft YaHei, PingFang SC, Arial, sans-serif" font-size="16" fill="#616161">Robot Monitor System 代码质量审计 · 13 项问题 · 53 个单测</text>

    
    <g id="category-pills">
        <path fill="#F44336" fill-opacity="0.15" d="M933,32 H977 A13,13 0 0 1 990,45 V45 A13,13 0 0 1 977,58 H933 A13,13 0 0 1 920,45 V45 A13,13 0 0 1 933,32 Z" />
        <text x="955" y="50" text-anchor="middle" font-family="Microsoft YaHei, Arial, sans-serif" font-size="13" fill="#F44336" font-weight="bold">严重 4</text>

        <path fill="#FF9800" fill-opacity="0.15" d="M1013,32 H1057 A13,13 0 0 1 1070,45 V45 A13,13 0 0 1 1057,58 H1013 A13,13 0 0 1 1000,45 V45 A13,13 0 0 1 1013,32 Z" />
        <text x="1035" y="50" text-anchor="middle" font-family="Microsoft YaHei, Arial, sans-serif" font-size="13" fill="#FF9800" font-weight="bold">中等 5</text>

        <path fill="#1E88E5" fill-opacity="0.15" d="M1093,32 H1137 A13,13 0 0 1 1150,45 V45 A13,13 0 0 1 1137,58 H1093 A13,13 0 0 1 1080,45 V45 A13,13 0 0 1 1093,32 Z" />
        <text x="1115" y="50" text-anchor="middle" font-family="Microsoft YaHei, Arial, sans-serif" font-size="13" fill="#1E88E5" font-weight="bold">建议 4</text>

        <path fill="#4CAF50" fill-opacity="0.15" d="M1173,32 H1227 A13,13 0 0 1 1240,45 V45 A13,13 0 0 1 1227,58 H1173 A13,13 0 0 1 1160,45 V45 A13,13 0 0 1 1173,32 Z" />
        <text x="1200" y="50" text-anchor="middle" font-family="Microsoft YaHei, Arial, sans-serif" font-size="13" fill="#4CAF50" font-weight="bold">单测 53</text>
    </g>

    
    <g id="issues-table">
        <path fill="#F8FAFC" stroke="#E0E0E0" stroke-width="1" d="M52,105 H1228 A12,12 0 0 1 1240,117 V673 A12,12 0 0 1 1228,685 H52 A12,12 0 0 1 40,673 V117 A12,12 0 0 1 52,105 Z" />

        
        <g transform="translate(50, 115)">
            <path fill="#0D47A1" d="M4,0 H31 A4,4 0 0 1 35,4 V30 A4,4 0 0 1 31,34 H4 A4,4 0 0 1 0,30 V4 A4,4 0 0 1 4,0 Z" />
            <text x="17" y="23" text-anchor="middle" font-family="Microsoft YaHei, Arial, sans-serif" font-size="14" font-weight="bold" fill="#FFFFFF">#</text>

            <path fill="#0D47A1" d="M44,0 H196 A4,4 0 0 1 200,4 V30 A4,4 0 0 1 196,34 H44 A4,4 0 0 1 40,30 V4 A4,4 0 0 1 44,0 Z" />
            <text x="120" y="23" text-anchor="middle" font-family="Microsoft YaHei, Arial, sans-serif" font-size="14" font-weight="bold" fill="#FFFFFF">问题类型</text>

            <path fill="#0D47A1" d="M209,0 H751 A4,4 0 0 1 755,4 V30 A4,4 0 0 1 751,34 H209 A4,4 0 0 1 205,30 V4 A4,4 0 0 1 209,0 Z" />
            <text x="480" y="23" text-anchor="middle" font-family="Microsoft YaHei, Arial, sans-serif" font-size="14" font-weight="bold" fill="#FFFFFF">问题描述</text>

            <path fill="#0D47A1" d="M764,0 H1191 A4,4 0 0 1 1195,4 V30 A4,4 0 0 1 1191,34 H764 A4,4 0 0 1 760,30 V4 A4,4 0 0 1 764,0 Z" />
            <text x="977" y="23" text-anchor="middle" font-family="Microsoft YaHei, Arial, sans-serif" font-size="14" font-weight="bold" fill="#FFFFFF">已修改</text>
        </g>

        
        <g transform="translate(50, 154)">
            <path fill="#F44336" fill-opacity="0.1" d="M4,0 H31 A4,4 0 0 1 35,4 V38 A4,4 0 0 1 31,42 H4 A4,4 0 0 1 0,38 V4 A4,4 0 0 1 4,0 Z" />
            <text x="17" y="28" text-anchor="middle" font-family="Microsoft YaHei, Arial, sans-serif" font-size="14" fill="#F44336" font-weight="bold">1</text>

            <path fill="#FFFFFF" stroke="#E0E0E0" stroke-width="0.5" d="M44,0 H196 A4,4 0 0 1 200,4 V38 A4,4 0 0 1 196,42 H44 A4,4 0 0 1 40,38 V4 A4,4 0 0 1 44,0 Z" />
            <text x="50" y="28" font-family="Microsoft YaHei, Arial, sans-serif" font-size="14" fill="#0D47A1" font-weight="bold">数据类定义问题</text>

            <path fill="#FFFFFF" stroke="#E0E0E0" stroke-width="0.5" d="M209,0 H751 A4,4 0 0 1 755,4 V38 A4,4 0 0 1 751,42 H209 A4,4 0 0 1 205,38 V4 A4,4 0 0 1 209,0 Z" />
            <text x="215" y="21" font-family="Microsoft YaHei, Arial, sans-serif" font-size="13" fill="#616161">类型注解不完整：</text>
            <text x="215" y="36" font-family="Consolas, monospace" font-size="13" fill="#F44336">history: list = field(default_factory=list)</text>

            <path fill="#4CAF50" fill-opacity="0.08" d="M764,0 H1191 A4,4 0 0 1 1195,4 V38 A4,4 0 0 1 1191,42 H764 A4,4 0 0 1 760,38 V4 A4,4 0 0 1 764,0 Z" />
            <text x="770" y="28" font-family="Consolas, monospace" font-size="13" fill="#4CAF50">history: List[Dict[str, str]] = field(...)</text>
        </g>

        
        <g transform="translate(50, 200)">
            <path fill="#F44336" fill-opacity="0.1" d="M4,0 H31 A4,4 0 0 1 35,4 V38 A4,4 0 0 1 31,42 H4 A4,4 0 0 1 0,38 V4 A4,4 0 0 1 4,0 Z" />
            <text x="17" y="28" text-anchor="middle" font-family="Microsoft YaHei, Arial, sans-serif" font-size="14" fill="#F44336" font-weight="bold">2</text>

            <path fill="#FFFFFF" stroke="#E0E0E0" stroke-width="0.5" d="M44,0 H196 A4,4 0 0 1 200,4 V38 A4,4 0 0 1 196,42 H44 A4,4 0 0 1 40,38 V4 A4,4 0 0 1 44,0 Z" />
            <text x="50" y="28" font-family="Microsoft YaHei, Arial, sans-serif" font-size="14" fill="#0D47A1" font-weight="bold">错误处理不完善</text>

            <path fill="#FFFFFF" stroke="#E0E0E0" stroke-width="0.5" d="M209,0 H751 A4,4 0 0 1 755,4 V38 A4,4 0 0 1 751,42 H209 A4,4 0 0 1 205,38 V4 A4,4 0 0 1 209,0 Z" />
            <text x="215" y="21" font-family="Microsoft YaHei, Arial, sans-serif" font-size="13" fill="#616161">JSON 解析缺少异常处理，LLM 输出格式错误会直接崩溃</text>
            <text x="215" y="36" font-family="Consolas, monospace" font-size="13" fill="#F44336">resp = json.loads(resp)  # 无 try-catch</text>

            <path fill="#4CAF50" fill-opacity="0.08" d="M764,0 H1191 A4,4 0 0 1 1195,4 V38 A4,4 0 0 1 1191,42 H764 A4,4 0 0 1 760,38 V4 A4,4 0 0 1 764,0 Z" />
            <text x="770" y="21" font-family="Microsoft YaHei, Arial, sans-serif" font-size="13" fill="#4CAF50">try: resp = json.loads(resp)</text>
            <text x="770" y="36" font-family="Microsoft YaHei, Arial, sans-serif" font-size="13" fill="#4CAF50">except JSONDecodeError: 标记 failed</text>
        </g>

        
        <g transform="translate(50, 246)">
            <path fill="#F44336" fill-opacity="0.1" d="M4,0 H31 A4,4 0 0 1 35,4 V38 A4,4 0 0 1 31,42 H4 A4,4 0 0 1 0,38 V4 A4,4 0 0 1 4,0 Z" />
            <text x="17" y="28" text-anchor="middle" font-family="Microsoft YaHei, Arial, sans-serif" font-size="14" fill="#F44336" font-weight="bold">3</text>

            <path fill="#FFFFFF" stroke="#E0E0E0" stroke-width="0.5" d="M44,0 H196 A4,4 0 0 1 200,4 V38 A4,4 0 0 1 196,42 H44 A4,4 0 0 1 40,38 V4 A4,4 0 0 1 44,0 Z" />
            <text x="50" y="28" font-family="Microsoft YaHei, Arial, sans-serif" font-size="14" fill="#0D47A1" font-weight="bold">硬编码配置问题</text>

            <path fill="#FFFFFF" stroke="#E0E0E0" stroke-width="0.5" d="M209,0 H751 A4,4 0 0 1 755,4 V38 A4,4 0 0 1 751,42 H209 A4,4 0 0 1 205,38 V4 A4,4 0 0 1 209,0 Z" />
            <text x="215" y="21" font-family="Microsoft YaHei, Arial, sans-serif" font-size="13" fill="#616161">LLM URL 和场景图路径硬编码：</text>
            <text x="215" y="36" font-family="Consolas, monospace" font-size="13" fill="#F44336">llm_base_url="http://192.168.7.18:39000/v1"</text>

            <path fill="#4CAF50" fill-opacity="0.08" d="M764,0 H1191 A4,4 0 0 1 1195,4 V38 A4,4 0 0 1 1191,42 H764 A4,4 0 0 1 760,38 V4 A4,4 0 0 1 764,0 Z" />
            <text x="770" y="28" font-family="Microsoft YaHei, Arial, sans-serif" font-size="13" fill="#4CAF50">抽取到配置文件或环境变量</text>
        </g>

        
        <g transform="translate(50, 292)">
            <path fill="#F44336" fill-opacity="0.1" d="M4,0 H31 A4,4 0 0 1 35,4 V38 A4,4 0 0 1 31,42 H4 A4,4 0 0 1 0,38 V4 A4,4 0 0 1 4,0 Z" />
            <text x="17" y="28" text-anchor="middle" font-family="Microsoft YaHei, Arial, sans-serif" font-size="14" fill="#F44336" font-weight="bold">4</text>

            <path fill="#FFFFFF" stroke="#E0E0E0" stroke-width="0.5" d="M44,0 H196 A4,4 0 0 1 200,4 V38 A4,4 0 0 1 196,42 H44 A4,4 0 0 1 40,38 V4 A4,4 0 0 1 44,0 Z" />
            <text x="50" y="28" font-family="Microsoft YaHei, Arial, sans-serif" font-size="14" fill="#0D47A1" font-weight="bold">并发安全问题</text>

            <path fill="#FFFFFF" stroke="#E0E0E0" stroke-width="0.5" d="M209,0 H751 A4,4 0 0 1 755,4 V38 A4,4 0 0 1 751,42 H209 A4,4 0 0 1 205,38 V4 A4,4 0 0 1 209,0 Z" />
            <text x="215" y="21" font-family="Microsoft YaHei, Arial, sans-serif" font-size="13" fill="#616161">running_tasks 字典缺少锁保护，多协程并发访问可能出问题</text>
            <text x="215" y="36" font-family="Consolas, monospace" font-size="13" fill="#F44336">self.running_tasks = {}  # 无锁</text>

            <path fill="#4CAF50" fill-opacity="0.08" d="M764,0 H1191 A4,4 0 0 1 1195,4 V38 A4,4 0 0 1 1191,42 H764 A4,4 0 0 1 760,38 V4 A4,4 0 0 1 764,0 Z" />
            <text x="770" y="21" font-family="Microsoft YaHei, Arial, sans-serif" font-size="13" fill="#4CAF50">self._tasks_lock = asyncio.Lock()</text>
            <text x="770" y="36" font-family="Microsoft YaHei, Arial, sans-serif" font-size="13" fill="#4CAF50">async with self._tasks_lock: ...</text>
        </g>

        
        <g transform="translate(50, 338)">
            <path fill="#FF9800" fill-opacity="0.1" d="M4,0 H31 A4,4 0 0 1 35,4 V38 A4,4 0 0 1 31,42 H4 A4,4 0 0 1 0,38 V4 A4,4 0 0 1 4,0 Z" />
            <text x="17" y="28" text-anchor="middle" font-family="Microsoft YaHei, Arial, sans-serif" font-size="14" fill="#FF9800" font-weight="bold">5</text>

            <path fill="#FFFFFF" stroke="#E0E0E0" stroke-width="0.5" d="M44,0 H196 A4,4 0 0 1 200,4 V38 A4,4 0 0 1 196,42 H44 A4,4 0 0 1 40,38 V4 A4,4 0 0 1 44,0 Z" />
            <text x="50" y="28" font-family="Microsoft YaHei, Arial, sans-serif" font-size="14" fill="#0D47A1" font-weight="bold">资源泄漏风险</text>

            <path fill="#FFFFFF" stroke="#E0E0E0" stroke-width="0.5" d="M209,0 H751 A4,4 0 0 1 755,4 V38 A4,4 0 0 1 751,42 H209 A4,4 0 0 1 205,38 V4 A4,4 0 0 1 209,0 Z" />
            <text x="215" y="21" font-family="Microsoft YaHei, Arial, sans-serif" font-size="13" fill="#616161">异常路径下 status_map 可能未清理：</text>
            <text x="215" y="36" font-family="Microsoft YaHei, Arial, sans-serif" font-size="13" fill="#FF9800">ainvoke 抛异常时 del status_map 不执行</text>

            <path fill="#4CAF50" fill-opacity="0.08" d="M764,0 H1191 A4,4 0 0 1 1195,4 V38 A4,4 0 0 1 1191,42 H764 A4,4 0 0 1 760,38 V4 A4,4 0 0 1 764,0 Z" />
            <text x="770" y="21" font-family="Microsoft YaHei, Arial, sans-serif" font-size="13" fill="#4CAF50">try: ... finally:</text>
            <text x="770" y="36" font-family="Microsoft YaHei, Arial, sans-serif" font-size="13" fill="#4CAF50">status_map.pop(context_id, None)</text>
        </g>

        
        <g transform="translate(50, 384)">
            <path fill="#FF9800" fill-opacity="0.1" d="M4,0 H31 A4,4 0 0 1 35,4 V38 A4,4 0 0 1 31,42 H4 A4,4 0 0 1 0,38 V4 A4,4 0 0 1 4,0 Z" />
            <text x="17" y="28" text-anchor="middle" font-family="Microsoft YaHei, Arial, sans-serif" font-size="14" fill="#FF9800" font-weight="bold">6</text>

            <path fill="#FFFFFF" stroke="#E0E0E0" stroke-width="0.5" d="M44,0 H196 A4,4 0 0 1 200,4 V38 A4,4 0 0 1 196,42 H44 A4,4 0 0 1 40,38 V4 A4,4 0 0 1 44,0 Z" />
            <text x="50" y="28" font-family="Microsoft YaHei, Arial, sans-serif" font-size="14" fill="#0D47A1" font-weight="bold">重复代码</text>

            <path fill="#FFFFFF" stroke="#E0E0E0" stroke-width="0.5" d="M209,0 H751 A4,4 0 0 1 755,4 V38 A4,4 0 0 1 751,42 H209 A4,4 0 0 1 205,38 V4 A4,4 0 0 1 209,0 Z" />
            <text x="215" y="21" font-family="Microsoft YaHei, Arial, sans-serif" font-size="13" fill="#616161">person_plan_node 和 obj_plan_node 有大量重复逻辑</text>
            <text x="215" y="36" font-family="Microsoft YaHei, Arial, sans-serif" font-size="13" fill="#FF9800">取消检查模式完全相同</text>

            <path fill="#4CAF50" fill-opacity="0.08" d="M764,0 H1191 A4,4 0 0 1 1195,4 V38 A4,4 0 0 1 1191,42 H764 A4,4 0 0 1 760,38 V4 A4,4 0 0 1 764,0 Z" />
            <text x="770" y="28" font-family="Microsoft YaHei, Arial, sans-serif" font-size="13" fill="#4CAF50">抽取 _check_cancel() 公共方法</text>
        </g>

        
        <g transform="translate(50, 430)">
            <path fill="#FF9800" fill-opacity="0.1" d="M4,0 H31 A4,4 0 0 1 35,4 V38 A4,4 0 0 1 31,42 H4 A4,4 0 0 1 0,38 V4 A4,4 0 0 1 4,0 Z" />
            <text x="17" y="28" text-anchor="middle" font-family="Microsoft YaHei, Arial, sans-serif" font-size="14" fill="#FF9800" font-weight="bold">7</text>

            <path fill="#FFFFFF" stroke="#E0E0E0" stroke-width="0.5" d="M44,0 H196 A4,4 0 0 1 200,4 V38 A4,4 0 0 1 196,42 H44 A4,4 0 0 1 40,38 V4 A4,4 0 0 1 44,0 Z" />
            <text x="50" y="28" font-family="Microsoft YaHei, Arial, sans-serif" font-size="14" fill="#0D47A1" font-weight="bold">未使用代码/注释</text>

            <path fill="#FFFFFF" stroke="#E0E0E0" stroke-width="0.5" d="M209,0 H751 A4,4 0 0 1 755,4 V38 A4,4 0 0 1 751,42 H209 A4,4 0 0 1 205,38 V4 A4,4 0 0 1 209,0 Z" />
            <text x="215" y="21" font-family="Microsoft YaHei, Arial, sans-serif" font-size="13" fill="#616161">存在注释掉的代码：</text>
            <text x="215" y="36" font-family="Consolas, monospace" font-size="13" fill="#FF9800"># tid = str(uuid.uuid4()) ... odom = None</text>

            <path fill="#4CAF50" fill-opacity="0.08" d="M764,0 H1191 A4,4 0 0 1 1195,4 V38 A4,4 0 0 1 1191,42 H764 A4,4 0 0 1 760,38 V4 A4,4 0 0 1 764,0 Z" />
            <text x="770" y="28" font-family="Microsoft YaHei, Arial, sans-serif" font-size="13" fill="#4CAF50">删除或添加 TODO 注释说明</text>
        </g>

        
        <g transform="translate(50, 476)">
            <path fill="#FF9800" fill-opacity="0.1" d="M4,0 H31 A4,4 0 0 1 35,4 V38 A4,4 0 0 1 31,42 H4 A4,4 0 0 1 0,38 V4 A4,4 0 0 1 4,0 Z" />
            <text x="17" y="28" text-anchor="middle" font-family="Microsoft YaHei, Arial, sans-serif" font-size="14" fill="#FF9800" font-weight="bold">8</text>

            <path fill="#FFFFFF" stroke="#E0E0E0" stroke-width="0.5" d="M44,0 H196 A4,4 0 0 1 200,4 V38 A4,4 0 0 1 196,42 H44 A4,4 0 0 1 40,38 V4 A4,4 0 0 1 44,0 Z" />
            <text x="50" y="28" font-family="Microsoft YaHei, Arial, sans-serif" font-size="14" fill="#0D47A1" font-weight="bold">Prompt 管理问题</text>

            <path fill="#FFFFFF" stroke="#E0E0E0" stroke-width="0.5" d="M209,0 H751 A4,4 0 0 1 755,4 V38 A4,4 0 0 1 751,42 H209 A4,4 0 0 1 205,38 V4 A4,4 0 0 1 209,0 Z" />
            <text x="215" y="21" font-family="Microsoft YaHei, Arial, sans-serif" font-size="13" fill="#616161">未使用 Prompt：PLAN_SYSYEM_PROMPT 等多个</text>
            <text x="215" y="36" font-family="Microsoft YaHei, Arial, sans-serif" font-size="13" fill="#FF9800">拼写错误：SYSYEM → SYSTEM</text>

            <path fill="#4CAF50" fill-opacity="0.08" d="M764,0 H1191 A4,4 0 0 1 1195,4 V38 A4,4 0 0 1 1191,42 H764 A4,4 0 0 1 760,38 V4 A4,4 0 0 1 764,0 Z" />
            <text x="770" y="28" font-family="Microsoft YaHei, Arial, sans-serif" font-size="13" fill="#4CAF50">删除未使用 Prompt，修正拼写</text>
        </g>

        
        <g transform="translate(50, 522)">
            <path fill="#FF9800" fill-opacity="0.1" d="M4,0 H31 A4,4 0 0 1 35,4 V38 A4,4 0 0 1 31,42 H4 A4,4 0 0 1 0,38 V4 A4,4 0 0 1 4,0 Z" />
            <text x="17" y="28" text-anchor="middle" font-family="Microsoft YaHei, Arial, sans-serif" font-size="14" fill="#FF9800" font-weight="bold">9</text>

            <path fill="#FFFFFF" stroke="#E0E0E0" stroke-width="0.5" d="M44,0 H196 A4,4 0 0 1 200,4 V38 A4,4 0 0 1 196,42 H44 A4,4 0 0 1 40,38 V4 A4,4 0 0 1 44,0 Z" />
            <text x="50" y="28" font-family="Microsoft YaHei, Arial, sans-serif" font-size="14" fill="#0D47A1" font-weight="bold">监控节点逻辑</text>

            <path fill="#FFFFFF" stroke="#E0E0E0" stroke-width="0.5" d="M209,0 H751 A4,4 0 0 1 755,4 V38 A4,4 0 0 1 751,42 H209 A4,4 0 0 1 205,38 V4 A4,4 0 0 1 209,0 Z" />
            <text x="215" y="21" font-family="Microsoft YaHei, Arial, sans-serif" font-size="13" fill="#616161">硬编码轮询间隔：</text>
            <text x="215" y="36" font-family="Consolas, monospace" font-size="13" fill="#FF9800">await asyncio.sleep(2)  # 硬编码</text>

            <path fill="#4CAF50" fill-opacity="0.08" d="M764,0 H1191 A4,4 0 0 1 1195,4 V38 A4,4 0 0 1 1191,42 H764 A4,4 0 0 1 760,38 V4 A4,4 0 0 1 764,0 Z" />
            <text x="770" y="28" font-family="Microsoft YaHei, Arial, sans-serif" font-size="13" fill="#4CAF50">作为配置参数或事件通知机制</text>
        </g>

        
        <g transform="translate(50, 568)">
            <path fill="#1E88E5" fill-opacity="0.1" d="M4,0 H31 A4,4 0 0 1 35,4 V38 A4,4 0 0 1 31,42 H4 A4,4 0 0 1 0,38 V4 A4,4 0 0 1 4,0 Z" />
            <text x="17" y="28" text-anchor="middle" font-family="Microsoft YaHei, Arial, sans-serif" font-size="14" fill="#1E88E5" font-weight="bold">10</text>

            <path fill="#FFFFFF" stroke="#E0E0E0" stroke-width="0.5" d="M44,0 H196 A4,4 0 0 1 200,4 V38 A4,4 0 0 1 196,42 H44 A4,4 0 0 1 40,38 V4 A4,4 0 0 1 44,0 Z" />
            <text x="50" y="28" font-family="Microsoft YaHei, Arial, sans-serif" font-size="14" fill="#0D47A1" font-weight="bold">路由映射不一致</text>

            <path fill="#FFFFFF" stroke="#E0E0E0" stroke-width="0.5" d="M209,0 H751 A4,4 0 0 1 755,4 V38 A4,4 0 0 1 751,42 H209 A4,4 0 0 1 205,38 V4 A4,4 0 0 1 209,0 Z" />
            <text x="215" y="21" font-family="Microsoft YaHei, Arial, sans-serif" font-size="13" fill="#616161">completed 状态路由到 obj 节点逻辑不清晰</text>
            <text x="215" y="36" font-family="Consolas, monospace" font-size="13" fill="#1E88E5">"completed": "obj"  # 应该结束或重新规划？</text>

            <path fill="#4CAF50" fill-opacity="0.08" d="M764,0 H1191 A4,4 0 0 1 1195,4 V38 A4,4 0 0 1 1191,42 H764 A4,4 0 0 1 760,38 V4 A4,4 0 0 1 764,0 Z" />
            <text x="770" y="28" font-family="Microsoft YaHei, Arial, sans-serif" font-size="13" fill="#4CAF50">添加注释说明业务含义</text>
        </g>

        
        <g transform="translate(50, 614)">
            <path fill="#1E88E5" fill-opacity="0.1" d="M4,0 H31 A4,4 0 0 1 35,4 V38 A4,4 0 0 1 31,42 H4 A4,4 0 0 1 0,38 V4 A4,4 0 0 1 4,0 Z" />
            <text x="17" y="28" text-anchor="middle" font-family="Microsoft YaHei, Arial, sans-serif" font-size="14" fill="#1E88E5" font-weight="bold">11</text>

            <path fill="#FFFFFF" stroke="#E0E0E0" stroke-width="0.5" d="M44,0 H196 A4,4 0 0 1 200,4 V38 A4,4 0 0 1 196,42 H44 A4,4 0 0 1 40,38 V4 A4,4 0 0 1 44,0 Z" />
            <text x="50" y="28" font-family="Microsoft YaHei, Arial, sans-serif" font-size="14" fill="#0D47A1" font-weight="bold">测试代码混入</text>

            <path fill="#FFFFFF" stroke="#E0E0E0" stroke-width="0.5" d="M209,0 H751 A4,4 0 0 1 755,4 V38 A4,4 0 0 1 751,42 H209 A4,4 0 0 1 205,38 V4 A4,4 0 0 1 209,0 Z" />
            <text x="215" y="21" font-family="Microsoft YaHei, Arial, sans-serif" font-size="13" fill="#616161">__main__ 中包含大量测试代码（约 90 行）</text>
            <text x="215" y="36" font-family="Microsoft YaHei, Arial, sans-serif" font-size="13" fill="#1E88E5">影响主文件可读性和维护性</text>

            <path fill="#4CAF50" fill-opacity="0.08" d="M764,0 H1191 A4,4 0 0 1 1195,4 V38 A4,4 0 0 1 1191,42 H764 A4,4 0 0 1 760,38 V4 A4,4 0 0 1 764,0 Z" />
            <text x="770" y="28" font-family="Microsoft YaHei, Arial, sans-serif" font-size="13" fill="#4CAF50">移至 tests/test_navigate_agent.py</text>
        </g>

        
        <g transform="translate(50, 660)">
            <path fill="#1E88E5" fill-opacity="0.1" d="M4,0 H31 A4,4 0 0 1 35,4 V24 A4,4 0 0 1 31,28 H4 A4,4 0 0 1 0,24 V4 A4,4 0 0 1 4,0 Z" />
            <text x="17" y="20" text-anchor="middle" font-family="Microsoft YaHei, Arial, sans-serif" font-size="14" fill="#1E88E5" font-weight="bold">12</text>

            <path fill="#FFFFFF" stroke="#E0E0E0" stroke-width="0.5" d="M44,0 H196 A4,4 0 0 1 200,4 V24 A4,4 0 0 1 196,28 H44 A4,4 0 0 1 40,24 V4 A4,4 0 0 1 44,0 Z" />
            <text x="50" y="20" font-family="Microsoft YaHei, Arial, sans-serif" font-size="14" fill="#0D47A1" font-weight="bold">日志记录不规范</text>

            <path fill="#FFFFFF" stroke="#E0E0E0" stroke-width="0.5" d="M209,0 H751 A4,4 0 0 1 755,4 V24 A4,4 0 0 1 751,28 H209 A4,4 0 0 1 205,24 V4 A4,4 0 0 1 209,0 Z" />
            <text x="215" y="20" font-family="Microsoft YaHei, Arial, sans-serif" font-size="13" fill="#1E88E5">print(f'Anwser: {resp}')  # 应用 logging</text>

            <path fill="#4CAF50" fill-opacity="0.08" d="M764,0 H1191 A4,4 0 0 1 1195,4 V24 A4,4 0 0 1 1191,28 H764 A4,4 0 0 1 760,24 V4 A4,4 0 0 1 764,0 Z" />
            <text x="770" y="20" font-family="Microsoft YaHei, Arial, sans-serif" font-size="13" fill="#4CAF50">logging.info(f'Answer: {resp}')</text>
        </g>

        
        <g transform="translate(50, 693)">
            <text x="17" y="12" font-family="Microsoft YaHei, Arial, sans-serif" font-size="12" fill="#1E88E5" font-weight="bold">13</text>
            <text x="55" y="12" font-family="Microsoft YaHei, Arial, sans-serif" font-size="12" fill="#0D47A1" font-weight="bold">类型注解不完整</text>
            <text x="225" y="12" font-family="Microsoft YaHei, Arial, sans-serif" font-size="12" fill="#1E88E5">async def invoke_llm(self, messages):  # 缺少返回类型</text>
            <text x="780" y="12" font-family="Consolas, monospace" font-size="12" fill="#4CAF50">→ async def invoke_llm(self, messages: List[Dict]) -&gt; str:</text>
        </g>
    </g>

    
    <text x="1220" y="700" text-anchor="end" font-family="Microsoft YaHei, Arial, sans-serif" font-size="12" fill="#9E9E9E">7 / 7</text>
</svg>