<svg xmlns="http://www.w3.org/2000/svg" viewBox="0 0 1280 720" width="1280" height="720">
  <defs>
    <pattern id="dotP08" x="0" y="0" width="7" height="7" patternUnits="userSpaceOnUse">
      <circle cx="3.5" cy="3.5" r="0.7" fill="#1A1A1A" fill-opacity="0.1"/>
    </pattern>
  </defs>

  <rect id="bg" width="1280" height="720" fill="#F5EFE0"/>
  <rect id="bg-grain" width="1280" height="720" fill="url(#dotP08)"/>

  <g id="header">
    <rect x="60" y="56" width="14" height="68" fill="#1E4DBC"/>
    <rect x="63" y="59" width="14" height="68" fill="#FF5C8A" opacity="0.7"/>
    <rect x="60" y="56" width="14" height="68" fill="#1E4DBC"/>
    <text x="92" y="98" font-family="Impact, 'Arial Black', 'Microsoft YaHei', sans-serif" font-size="48" fill="#1A1A1A" letter-spacing="-1">你能填的东西 ＞ 6 种内容</text>
    <text x="92" y="128" font-family="Consolas, 'Courier New', monospace" font-size="13" fill="#5A5A5A" letter-spacing="3">SIX CONTENT TYPES · THERE ARE NO MISTAKES · JUST WHIMS</text>
  </g>

  <line x1="60" y1="152" x2="1220" y2="152" stroke="#1A1A1A" stroke-width="3"/>

  <!-- Card 01 — 草图 / 漫画 -->
  <g id="card-01">
    <rect x="60" y="180" width="380" height="240" fill="#1E4DBC"/>
    <rect x="63" y="183" width="380" height="240" fill="#FF5C8A" opacity="0.55"/>
    <rect x="60" y="180" width="380" height="240" fill="#1E4DBC"/>
    <text x="408" y="226" font-family="Impact, 'Arial Black', 'Microsoft YaHei', sans-serif" font-size="44" fill="#FF5C8A" text-anchor="end">01</text>
    <!-- icon: chunk-filled/pencil -->
  <g transform="translate(86.0, 200.0) scale(3.5)" fill="#F5EFE0">
    <path d="M8.29289 3.70711L1 11V15H5L12.2929 7.70711L8.29289 3.70711Z"/>
    <path d="M9.70711 2.29289L13.7071 6.29289L15.1716 4.82843C15.702 4.29799 16 3.57857 16 2.82843C16 1.26633 14.7337 0 13.1716 0C12.4214 0 11.702 0.297995 11.1716 0.828428L9.70711 2.29289Z"/>
  </g>
    <text x="86" y="294" font-family="'Microsoft YaHei', 'PingFang SC', Arial, sans-serif" font-size="22" font-weight="900" fill="#F5EFE0">草图 / 漫画</text>
    <text x="86" y="320" font-family="Consolas, 'Courier New', monospace" font-size="11" fill="#FF5C8A" letter-spacing="2">SKETCHES &amp; MINI-COMICS</text>
    <line x1="86" y1="332" x2="200" y2="332" stroke="#F5EFE0" stroke-width="2"/>
    <text x="86" y="360" font-family="'Microsoft YaHei', 'PingFang SC', Arial, sans-serif" font-size="14" fill="#F5EFE0">涂鸦、4 格漫画、手绘日记</text>
    <text x="86" y="382" font-family="'Microsoft YaHei', 'PingFang SC', Arial, sans-serif" font-size="14" fill="#F5EFE0">字丑也行，构图弱也行</text>
    <text x="86" y="404" font-family="'Microsoft YaHei', 'PingFang SC', Arial, sans-serif" font-size="14" font-weight="900" fill="#FF5C8A">画得不像 = 风格</text>
  </g>

  <!-- Card 02 — 诗 / 宣言 -->
  <g id="card-02">
    <rect x="450" y="180" width="380" height="240" fill="#FF5C8A"/>
    <rect x="453" y="183" width="380" height="240" fill="#1E4DBC" opacity="0.55"/>
    <rect x="450" y="180" width="380" height="240" fill="#FF5C8A"/>
    <text x="798" y="226" font-family="Impact, 'Arial Black', 'Microsoft YaHei', sans-serif" font-size="44" fill="#F5EFE0" text-anchor="end">02</text>
    <!-- icon: chunk-filled/pen-nib -->
  <g transform="translate(476.0, 200.0) scale(3.5)" fill="#1A1A1A">
    <path d="M11 0L16 5L14 7V12L3 16L2.20711 15.2071L6.48196 10.9323C6.64718 10.9764 6.82084 11 7 11C8.10457 11 9 10.1046 9 9C9 7.89543 8.10457 7 7 7C5.89543 7 5 7.89543 5 9C5 9.17916 5.02356 9.35282 5.06774 9.51804L0.792893 13.7929L0 13L4 2H9L11 0Z"/>
  </g>
    <text x="476" y="294" font-family="'Microsoft YaHei', 'PingFang SC', Arial, sans-serif" font-size="22" font-weight="900" fill="#1A1A1A">诗 / 宣言 / 短文</text>
    <text x="476" y="320" font-family="Consolas, 'Courier New', monospace" font-size="11" fill="#1E4DBC" letter-spacing="2">POETRY &amp; MANIFESTOS</text>
    <line x1="476" y1="332" x2="590" y2="332" stroke="#1A1A1A" stroke-width="2"/>
    <text x="476" y="360" font-family="'Microsoft YaHei', 'PingFang SC', Arial, sans-serif" font-size="14" fill="#1A1A1A">100 字宣言、一句口号、一首诗</text>
    <text x="476" y="382" font-family="'Microsoft YaHei', 'PingFang SC', Arial, sans-serif" font-size="14" fill="#1A1A1A">Riot Grrrl Manifesto 就是范式</text>
    <text x="476" y="404" font-family="'Microsoft YaHei', 'PingFang SC', Arial, sans-serif" font-size="14" font-weight="900" fill="#1E4DBC">短而准 ＞ 长而虚</text>
  </g>

  <!-- Card 03 — 便签 / 食谱 -->
  <g id="card-03">
    <rect x="840" y="180" width="380" height="240" fill="#E8A02E"/>
    <rect x="843" y="183" width="380" height="240" fill="#1E4DBC" opacity="0.55"/>
    <rect x="840" y="180" width="380" height="240" fill="#E8A02E"/>
    <text x="1188" y="226" font-family="Impact, 'Arial Black', 'Microsoft YaHei', sans-serif" font-size="44" fill="#1A1A1A" text-anchor="end">03</text>
    <!-- icon: chunk-filled/sticky-note -->
  <g transform="translate(866.0, 200.0) scale(3.5)" fill="#1A1A1A">
    <path d="M15 1H1V15H8V8H15V1Z"/>
    <path d="M15 10H10V15H11L15 11V10Z"/>
  </g>
    <text x="866" y="294" font-family="'Microsoft YaHei', 'PingFang SC', Arial, sans-serif" font-size="22" font-weight="900" fill="#1A1A1A">食谱 + 插图</text>
    <text x="866" y="320" font-family="Consolas, 'Courier New', monospace" font-size="11" fill="#1E4DBC" letter-spacing="2">RECIPES &amp; HOW-TOS</text>
    <line x1="866" y1="332" x2="980" y2="332" stroke="#1A1A1A" stroke-width="2"/>
    <text x="866" y="360" font-family="'Microsoft YaHei', 'PingFang SC', Arial, sans-serif" font-size="14" fill="#1A1A1A">外婆的腌菜配方 + 手绘工具</text>
    <text x="866" y="382" font-family="'Microsoft YaHei', 'PingFang SC', Arial, sans-serif" font-size="14" fill="#1A1A1A">"如何修自行车"教学</text>
    <text x="866" y="404" font-family="'Microsoft YaHei', 'PingFang SC', Arial, sans-serif" font-size="14" font-weight="900" fill="#1E4DBC">日常实用＝最普及的形式</text>
  </g>

  <!-- Card 04 — 私人写作 -->
  <g id="card-04">
    <rect x="60" y="440" width="380" height="240" fill="#1A1A1A"/>
    <rect x="63" y="443" width="380" height="240" fill="#FF5C8A" opacity="0.55"/>
    <rect x="60" y="440" width="380" height="240" fill="#1A1A1A"/>
    <text x="408" y="486" font-family="Impact, 'Arial Black', 'Microsoft YaHei', sans-serif" font-size="44" fill="#FF5C8A" text-anchor="end">04</text>
    <!-- icon: chunk-filled/book -->
  <g transform="translate(86.0, 460.0) scale(3.5)" fill="#F5EFE0">
    <path d="M5 0C3.34315 0 2 1.34315 2 3V13C2 14.6569 3.34315 16 5 16H14V14H4V12H14V0H5Z"/>
  </g>
    <text x="86" y="554" font-family="'Microsoft YaHei', 'PingFang SC', Arial, sans-serif" font-size="22" font-weight="900" fill="#F5EFE0">家庭照片 + 私人写作</text>
    <text x="86" y="580" font-family="Consolas, 'Courier New', monospace" font-size="11" fill="#FF5C8A" letter-spacing="2">PHOTOS &amp; PERSONAL WRITING</text>
    <line x1="86" y1="592" x2="200" y2="592" stroke="#F5EFE0" stroke-width="2"/>
    <text x="86" y="620" font-family="'Microsoft YaHei', 'PingFang SC', Arial, sans-serif" font-size="14" fill="#F5EFE0">老照片复印件 + 旁注</text>
    <text x="86" y="642" font-family="'Microsoft YaHei', 'PingFang SC', Arial, sans-serif" font-size="14" fill="#F5EFE0">家族故事 / 旅行札记</text>
    <text x="86" y="664" font-family="'Microsoft YaHei', 'PingFang SC', Arial, sans-serif" font-size="14" font-weight="900" fill="#FF5C8A">主权 ＞ 隐私</text>
  </g>

  <!-- Card 05 — 拼贴 -->
  <g id="card-05">
    <rect x="450" y="440" width="380" height="240" fill="#1E4DBC"/>
    <rect x="453" y="443" width="380" height="240" fill="#E8A02E" opacity="0.55"/>
    <rect x="450" y="440" width="380" height="240" fill="#1E4DBC"/>
    <text x="798" y="486" font-family="Impact, 'Arial Black', 'Microsoft YaHei', sans-serif" font-size="44" fill="#E8A02E" text-anchor="end">05</text>
    <!-- icon: chunk-filled/scissors -->
  <g transform="translate(476.0, 460.0) scale(3.5)" fill="#F5EFE0">
    <path fill-rule="evenodd" clip-rule="evenodd" d="M6.12133 0.878679C7.12068 1.87802 7.26759 3.407 6.56206 4.56207L16 14L15 15H12L7.5 10.5L6.56206 11.4379C7.26759 12.593 7.12068 14.122 6.12133 15.1213C5.53554 15.7071 4.76777 16 4 16H3.82843C2.26633 16 1 14.7337 1 13.1716C1 12.4214 1.29799 11.702 1.82843 11.1716L5 8L1.82843 4.82843C1.29799 4.29799 1 3.57857 1 2.82843C1 1.26633 2.26633 0 3.82843 0H4C4.76777 -3.12302e-06 5.53554 0.29289 6.12133 0.878679ZM3 3C3 3.55228 3.44772 4 4 4C4.55228 4 5 3.55228 5 3C5 2.44772 4.55228 2 4 2C3.44772 2 3 2.44772 3 3ZM4 12C3.44772 12 3 12.4477 3 13C3 13.5523 3.44772 14 4 14C4.55229 14 5 13.5523 5 13C5 12.4477 4.55228 12 4 12Z"/>
    <path d="M12 1L9 4L11.5 6.5L16 2L15 1L12 1Z"/>
  </g>
    <text x="476" y="554" font-family="'Microsoft YaHei', 'PingFang SC', Arial, sans-serif" font-size="22" font-weight="900" fill="#F5EFE0">拼贴 + 混合媒材</text>
    <text x="476" y="580" font-family="Consolas, 'Courier New', monospace" font-size="11" fill="#E8A02E" letter-spacing="2">COLLAGE &amp; MIXED MEDIA</text>
    <line x1="476" y1="592" x2="590" y2="592" stroke="#F5EFE0" stroke-width="2"/>
    <text x="476" y="620" font-family="'Microsoft YaHei', 'PingFang SC', Arial, sans-serif" font-size="14" fill="#F5EFE0">杂志撕页 + 胶带 + 印章</text>
    <text x="476" y="642" font-family="'Microsoft YaHei', 'PingFang SC', Arial, sans-serif" font-size="14" fill="#F5EFE0">字典页 + 票据 + 蕾丝</text>
    <text x="476" y="664" font-family="'Microsoft YaHei', 'PingFang SC', Arial, sans-serif" font-size="14" font-weight="900" fill="#E8A02E">物质感 = 复印机救不了</text>
  </g>

  <!-- Card 06 — 实验视觉 -->
  <g id="card-06">
    <rect x="840" y="440" width="380" height="240" fill="#FF5C8A"/>
    <rect x="843" y="443" width="380" height="240" fill="#1A1A1A" opacity="0.55"/>
    <rect x="840" y="440" width="380" height="240" fill="#FF5C8A"/>
    <text x="1188" y="486" font-family="Impact, 'Arial Black', 'Microsoft YaHei', sans-serif" font-size="44" fill="#1A1A1A" text-anchor="end">06</text>
    <!-- icon: chunk-filled/brush -->
  <g transform="translate(866.0, 460.0) scale(3.5)" fill="#1A1A1A">
    <path d="M9.44444 4.44444L12.3917 0.760432C12.7762 0.279794 13.3583 0 13.9738 0C15.0929 0 16 0.907148 16 2.02617C16 2.64169 15.7202 3.22383 15.2396 3.60835L11.5556 6.55556L12.2454 7.24538C12.7286 7.72855 13 8.38388 13 9.0672C13 9.66992 12.7887 10.2536 12.4028 10.7166L11.8246 11.4104L4.58957 4.17536L5.2834 3.59717C5.74643 3.21131 6.33008 3 6.9328 3C7.61612 3 8.27145 3.27145 8.75462 3.75462L9.44444 4.44444Z"/>
    <path d="M0 8L3.04679 5.46101L10.539 12.9532L8 16L0 8Z"/>
  </g>
    <text x="866" y="554" font-family="'Microsoft YaHei', 'PingFang SC', Arial, sans-serif" font-size="22" font-weight="900" fill="#1A1A1A">实验性视觉</text>
    <text x="866" y="580" font-family="Consolas, 'Courier New', monospace" font-size="11" fill="#1A1A1A" letter-spacing="2">EXPERIMENTAL VISUALS</text>
    <line x1="866" y1="592" x2="980" y2="592" stroke="#1A1A1A" stroke-width="2"/>
    <text x="866" y="620" font-family="'Microsoft YaHei', 'PingFang SC', Arial, sans-serif" font-size="14" fill="#1A1A1A">纯色块、纯纹理、纯字</text>
    <text x="866" y="642" font-family="'Microsoft YaHei', 'PingFang SC', Arial, sans-serif" font-size="14" fill="#1A1A1A">空白页 = 阅读节奏</text>
    <text x="866" y="664" font-family="'Microsoft YaHei', 'PingFang SC', Arial, sans-serif" font-size="14" font-weight="900" fill="#1E4DBC">没有信息 = 一种信息</text>
  </g>

  <g id="footer">
    <line x1="60" y1="694" x2="1220" y2="694" stroke="#1A1A1A" stroke-width="1"/>
    <text x="60" y="710" font-family="Consolas, 'Courier New', monospace" font-size="11" fill="#5A5A5A" letter-spacing="2">P08 · 6 CONTENT TYPES</text>
    <text x="1220" y="710" font-family="Consolas, 'Courier New', monospace" font-size="11" fill="#5A5A5A" text-anchor="end" letter-spacing="2">PICK ONE · PICK ALL · MAKE IT YOURS</text>
  </g>
</svg>
