<svg xmlns="http://www.w3.org/2000/svg" viewBox="0 0 1280 720" width="1280" height="720">
  <g id="background">
    <rect width="1280" height="720" fill="#0E1116"/>
  </g>

  <g id="page-header">
    <text x="60" y="56" font-family="Cambria, serif" font-size="11" fill="#8A857E" letter-spacing="3">PART II · THE BIG THREE · 08</text>
    <line x1="60" y1="72" x2="200" y2="72" stroke="#E63946" stroke-width="1"/>
    <text x="60" y="120" font-family="Cambria, &quot;Microsoft YaHei&quot;, serif" font-size="28" font-weight="bold" fill="#E8E6E1">OpenAI <tspan fill="#E63946">$122B</tspan> 这笔钱，从哪来</text>
    <text x="60" y="152" font-family="Cambria, serif" font-size="14" font-style="italic" fill="#8A857E">Composition of OpenAI's March 2026 mega-round (post-money $852B)</text>
  </g>

  <!-- chart-plot-area: donut | center: 400,420 | outer-radius: 170 | inner-radius: 100 -->
  <g id="donutChart" transform="translate(400, 420)">
    <!-- Amazon 41% (50/122) calibrated by svg_position_calculator -->
    <path d="M 0,-170 A 170,170 0 0,1 91.24,143.44 L 53.67,84.38 A 100,100 0 0,0 0,-100 Z" fill="#E63946"/>
    <!-- Nvidia 24.6% (30/122) -->
    <path d="M 91.24,143.44 A 170,170 0 0,1 -141.05,94.90 L -82.97,55.82 A 100,100 0 0,0 53.67,84.38 Z" fill="#F4A261"/>
    <!-- SoftBank 24.6% (30/122) -->
    <path d="M -141.05,94.90 A 170,170 0 0,1 -98.50,-138.55 L -57.94,-81.50 A 100,100 0 0,0 -82.97,55.82 Z" fill="#C9C5BE"/>
    <!-- MSFT + Others 9.8% (12/122) -->
    <path d="M -98.50,-138.55 A 170,170 0 0,1 0,-170 L 0,-100 A 100,100 0 0,0 -57.94,-81.50 Z" fill="#8A857E"/>

    <circle cx="0" cy="0" r="100" fill="#0E1116"/>
    <text x="0" y="-12" font-family="Cambria, serif" font-size="36" font-weight="bold" fill="#E8E6E1" text-anchor="middle">$122B</text>
    <text x="0" y="14" font-family="Cambria, serif" font-size="12" fill="#8A857E" text-anchor="middle" letter-spacing="2">TOTAL ROUND</text>
    <text x="0" y="40" font-family="Cambria, serif" font-size="11" fill="#5C5852" text-anchor="middle">@ $852B post-money</text>
  </g>

  <g id="investor-list">
    <line x1="660" y1="200" x2="660" y2="640" stroke="#2A2F36" stroke-width="1"/>

    <text x="700" y="220" font-family="Cambria, serif" font-size="11" fill="#E63946" letter-spacing="3">INVESTOR BREAKDOWN</text>

    <g id="row-amazon">
      <rect x="700" y="250" width="6" height="40" fill="#E63946"/>
      <use data-icon="simple-icons/amazon" x="720" y="259" width="22" height="22" fill="#E8E6E1"/>
      <text x="772" y="276" font-family="&quot;Microsoft YaHei&quot;, Arial, sans-serif" font-size="16" font-weight="bold" fill="#E8E6E1">Amazon</text>
      <text x="1180" y="276" text-anchor="end" font-family="Cambria, serif" font-size="22" font-weight="bold" fill="#E63946">$50B</text>
      <text x="1180" y="296" text-anchor="end" font-family="Cambria, serif" font-size="11" fill="#8A857E">41% · AWS 算力承诺</text>
      <line x1="700" y1="318" x2="1180" y2="318" stroke="#2A2F36" stroke-width="1"/>
    </g>

    <g id="row-nvidia">
      <rect x="700" y="330" width="6" height="40" fill="#F4A261"/>
      <use data-icon="simple-icons/nvidia" x="720" y="339" width="22" height="22" fill="#E8E6E1"/>
      <text x="772" y="356" font-family="&quot;Microsoft YaHei&quot;, Arial, sans-serif" font-size="16" font-weight="bold" fill="#E8E6E1">Nvidia</text>
      <text x="1180" y="356" text-anchor="end" font-family="Cambria, serif" font-size="22" font-weight="bold" fill="#F4A261">$30B</text>
      <text x="1180" y="376" text-anchor="end" font-family="Cambria, serif" font-size="11" fill="#8A857E">25% · 10GW 系统部署</text>
      <line x1="700" y1="398" x2="1180" y2="398" stroke="#2A2F36" stroke-width="1"/>
    </g>

    <g id="row-softbank">
      <rect x="700" y="410" width="6" height="40" fill="#C9C5BE"/>
      <text x="720" y="436" font-family="Cambria, &quot;Microsoft YaHei&quot;, serif" font-size="16" font-weight="bold" fill="#E8E6E1">SoftBank</text>
      <text x="1180" y="436" text-anchor="end" font-family="Cambria, serif" font-size="22" font-weight="bold" fill="#C9C5BE">$30B</text>
      <text x="1180" y="456" text-anchor="end" font-family="Cambria, serif" font-size="11" fill="#8A857E">25% · Stargate 联合主体</text>
      <line x1="700" y1="478" x2="1180" y2="478" stroke="#2A2F36" stroke-width="1"/>
    </g>

    <g id="row-others">
      <rect x="700" y="490" width="6" height="40" fill="#8A857E"/>
      <use data-icon="simple-icons/microsoft" x="720" y="499" width="22" height="22" fill="#E8E6E1"/>
      <text x="772" y="516" font-family="&quot;Microsoft YaHei&quot;, Arial, sans-serif" font-size="16" font-weight="bold" fill="#E8E6E1">MSFT + a16z + 其他</text>
      <text x="1180" y="516" text-anchor="end" font-family="Cambria, serif" font-size="22" font-weight="bold" fill="#8A857E">$12B</text>
      <text x="1180" y="536" text-anchor="end" font-family="Cambria, serif" font-size="11" fill="#8A857E">9% · 包含 T. Rowe Price 等</text>
      <line x1="700" y1="558" x2="1180" y2="558" stroke="#2A2F36" stroke-width="1"/>
    </g>

    <g id="callout">
      <text x="700" y="600" font-family="Cambria, serif" font-size="11" fill="#E63946" letter-spacing="3">OBSERVATION</text>
      <text x="700" y="628" font-family="Cambria, &quot;Microsoft YaHei&quot;, serif" font-size="15" fill="#E8E6E1">三大投资人合计 <tspan font-weight="bold" fill="#E63946">91%</tspan>——同时是 OpenAI 的 <tspan font-weight="bold" fill="#E63946">最大客户</tspan></text>
    </g>
  </g>

  <g id="page-footer">
    <line x1="60" y1="680" x2="1220" y2="680" stroke="#2A2F36" stroke-width="1"/>
    <text x="60" y="700" font-family="&quot;Microsoft YaHei&quot;, Arial, sans-serif" font-size="10" fill="#5C5852">Sources: OpenAI press 2026-03-31 · Bloomberg · TechCrunch · CNBC</text>
    <text x="1220" y="700" text-anchor="end" font-family="Cambria, serif" font-size="10" fill="#5C5852">08 / 20</text>
  </g>
</svg>
