<svg xmlns="http://www.w3.org/2000/svg" viewBox="0 0 1280 720" width="1280" height="720">
  

  <g id="bg">
    <rect width="1280" height="720" fill="#FFFFFF" />
  </g>

  <g id="header">
    <text x="64" y="60" font-family="Arial, &quot;Microsoft YaHei&quot;, sans-serif" font-size="11" fill="#999999" letter-spacing="2">P · 08</text>
    <text x="64" y="120" font-family="&quot;Arial Black&quot;, &quot;Microsoft YaHei&quot;, sans-serif" font-size="32" font-weight="900" fill="#1A1A1A">网格四种类型</text>
    <text x="64" y="148" font-family="Arial, &quot;Microsoft YaHei&quot;, sans-serif" font-size="14" fill="#666666" letter-spacing="2">FOUR GRID TYPES · MÜLLER-BROCKMANN, 1981</text>
    <line x1="64" y1="172" x2="120" y2="172" stroke="#D9251D" stroke-width="3" />
  </g>

  
  <g id="axis-cross">
    <line x1="64" y1="430" x2="1216" y2="430" stroke="#E8E8E8" stroke-width="1" />
    <line x1="640" y1="200" x2="640" y2="660" stroke="#E8E8E8" stroke-width="1" />
  </g>

  
  <g id="q-manuscript">
    <text x="80" y="232" font-family="Arial, &quot;Microsoft YaHei&quot;, sans-serif" font-size="11" fill="#666666" letter-spacing="2">01 · 古典</text>
    <text x="80" y="266" font-family="&quot;Arial Black&quot;, &quot;Microsoft YaHei&quot;, sans-serif" font-size="22" font-weight="900" fill="#1A1A1A">手稿网格</text>
    <text x="80" y="288" font-family="Arial, &quot;Microsoft YaHei&quot;, sans-serif" font-size="13" fill="#666666" letter-spacing="1">MANUSCRIPT GRID</text>
    <text font-size="13" font-family="Arial, &quot;Microsoft YaHei&quot;, sans-serif" fill="#1A1A1A" x="80" y="318">单栏满版 · 最古老的网格</text><text font-size="13" font-family="Arial, &quot;Microsoft YaHei&quot;, sans-serif" fill="#1A1A1A" x="80" y="338">书籍正文 · 长篇散文唯一选项</text><g id="schema-manuscript" transform="translate(440,222)">
      <rect x="0" y="0" width="160" height="180" fill="none" stroke="#1A1A1A" stroke-width="1" />
      <rect x="20" y="20" width="120" height="140" fill="#1A1A1A" fill-opacity="0.08" />
      <line x1="20" y1="40" x2="140" y2="40" stroke="#1A1A1A" stroke-width="0.5" />
      <line x1="20" y1="60" x2="140" y2="60" stroke="#1A1A1A" stroke-width="0.5" />
      <line x1="20" y1="80" x2="140" y2="80" stroke="#1A1A1A" stroke-width="0.5" />
      <line x1="20" y1="100" x2="140" y2="100" stroke="#1A1A1A" stroke-width="0.5" />
      <line x1="20" y1="120" x2="140" y2="120" stroke="#1A1A1A" stroke-width="0.5" />
      <line x1="20" y1="140" x2="120" y2="140" stroke="#1A1A1A" stroke-width="0.5" />
    </g>
  </g>

  
  <g id="q-column">
    <text x="660" y="232" font-family="Arial, &quot;Microsoft YaHei&quot;, sans-serif" font-size="11" fill="#666666" letter-spacing="2">02 · 期刊</text>
    <text x="660" y="266" font-family="&quot;Arial Black&quot;, &quot;Microsoft YaHei&quot;, sans-serif" font-size="22" font-weight="900" fill="#1A1A1A">列状网格</text>
    <text x="660" y="288" font-family="Arial, &quot;Microsoft YaHei&quot;, sans-serif" font-size="13" fill="#666666" letter-spacing="1">COLUMN GRID</text>
    <text font-size="13" font-family="Arial, &quot;Microsoft YaHei&quot;, sans-serif" fill="#1A1A1A" x="660" y="318">多栏并列 · 列宽行高皆可计算</text><text font-size="13" font-family="Arial, &quot;Microsoft YaHei&quot;, sans-serif" fill="#1A1A1A" x="660" y="338">期刊 · 报纸 · 出版业的语法基础</text><g id="schema-column" transform="translate(1020,222)">
      <rect x="0" y="0" width="160" height="180" fill="none" stroke="#1A1A1A" stroke-width="1" />
      <rect x="10" y="20" width="40" height="140" fill="#1A1A1A" fill-opacity="0.10" />
      <rect x="60" y="20" width="40" height="140" fill="#1A1A1A" fill-opacity="0.10" />
      <rect x="110" y="20" width="40" height="140" fill="#1A1A1A" fill-opacity="0.10" />
      <line x1="10" y1="40" x2="50" y2="40" stroke="#1A1A1A" stroke-width="0.5" />
      <line x1="10" y1="60" x2="50" y2="60" stroke="#1A1A1A" stroke-width="0.5" />
      <line x1="10" y1="80" x2="50" y2="80" stroke="#1A1A1A" stroke-width="0.5" />
      <line x1="60" y1="40" x2="100" y2="40" stroke="#1A1A1A" stroke-width="0.5" />
      <line x1="60" y1="60" x2="100" y2="60" stroke="#1A1A1A" stroke-width="0.5" />
      <line x1="60" y1="80" x2="100" y2="80" stroke="#1A1A1A" stroke-width="0.5" />
      <line x1="110" y1="40" x2="150" y2="40" stroke="#1A1A1A" stroke-width="0.5" />
      <line x1="110" y1="60" x2="150" y2="60" stroke="#1A1A1A" stroke-width="0.5" />
      <line x1="110" y1="80" x2="150" y2="80" stroke="#1A1A1A" stroke-width="0.5" />
    </g>
  </g>

  
  <g id="q-modular">
    <text x="80" y="462" font-family="Arial, &quot;Microsoft YaHei&quot;, sans-serif" font-size="11" fill="#D9251D" letter-spacing="2">03 · 海报</text>
    <text x="80" y="496" font-family="&quot;Arial Black&quot;, &quot;Microsoft YaHei&quot;, sans-serif" font-size="22" font-weight="900" fill="#D9251D">模数网格</text>
    <text x="80" y="518" font-family="Arial, &quot;Microsoft YaHei&quot;, sans-serif" font-size="13" fill="#666666" letter-spacing="1">MODULAR GRID</text>
    <text font-size="13" font-family="Arial, &quot;Microsoft YaHei&quot;, sans-serif" fill="#1A1A1A" x="80" y="548">横列 × 纵行的方格矩阵</text><text font-size="13" font-family="Arial, &quot;Microsoft YaHei&quot;, sans-serif" fill="#1A1A1A" x="80" y="568">海报 · 目录 · 平面设计的利器</text><text font-size="13" font-family="Arial, &quot;Microsoft YaHei&quot;, sans-serif" fill="#1A1A1A" x="80" y="588">瑞士国际主义最具识别度的网格类型</text><g id="schema-modular" transform="translate(440,452)">
      <rect x="0" y="0" width="160" height="180" fill="none" stroke="#D9251D" stroke-width="1" />
      <line x1="40" y1="0" x2="40" y2="180" stroke="#D9251D" stroke-width="0.5" />
      <line x1="80" y1="0" x2="80" y2="180" stroke="#D9251D" stroke-width="0.5" />
      <line x1="120" y1="0" x2="120" y2="180" stroke="#D9251D" stroke-width="0.5" />
      <line x1="0" y1="36" x2="160" y2="36" stroke="#D9251D" stroke-width="0.5" />
      <line x1="0" y1="72" x2="160" y2="72" stroke="#D9251D" stroke-width="0.5" />
      <line x1="0" y1="108" x2="160" y2="108" stroke="#D9251D" stroke-width="0.5" />
      <line x1="0" y1="144" x2="160" y2="144" stroke="#D9251D" stroke-width="0.5" />
      <rect x="0" y="0" width="80" height="36" fill="#D9251D" fill-opacity="0.18" />
      <rect x="40" y="72" width="40" height="72" fill="#1A1A1A" fill-opacity="0.85" />
      <rect x="120" y="108" width="40" height="36" fill="#1A1A1A" fill-opacity="0.40" />
    </g>
  </g>

  
  <g id="q-hierarchical">
    <text x="660" y="462" font-family="Arial, &quot;Microsoft YaHei&quot;, sans-serif" font-size="11" fill="#666666" letter-spacing="2">04 · 复合</text>
    <text x="660" y="496" font-family="&quot;Arial Black&quot;, &quot;Microsoft YaHei&quot;, sans-serif" font-size="22" font-weight="900" fill="#1A1A1A">层级网格</text>
    <text x="660" y="518" font-family="Arial, &quot;Microsoft YaHei&quot;, sans-serif" font-size="13" fill="#666666" letter-spacing="1">HIERARCHICAL GRID</text>
    <text font-size="13" font-family="Arial, &quot;Microsoft YaHei&quot;, sans-serif" fill="#1A1A1A" x="660" y="548">不规则但内部有逻辑</text><text font-size="13" font-family="Arial, &quot;Microsoft YaHei&quot;, sans-serif" fill="#1A1A1A" x="660" y="568">复合排版 · 杂志专题 · 网页布局</text><g id="schema-hierarchical" transform="translate(1020,452)">
      <rect x="0" y="0" width="160" height="180" fill="none" stroke="#1A1A1A" stroke-width="1" />
      <rect x="0" y="0" width="160" height="40" fill="#1A1A1A" fill-opacity="0.85" />
      <rect x="0" y="50" width="100" height="80" fill="#1A1A1A" fill-opacity="0.15" />
      <rect x="110" y="50" width="50" height="40" fill="#1A1A1A" fill-opacity="0.30" />
      <rect x="110" y="100" width="50" height="30" fill="#1A1A1A" fill-opacity="0.15" />
      <rect x="0" y="140" width="60" height="40" fill="#1A1A1A" fill-opacity="0.30" />
      <rect x="70" y="140" width="90" height="40" fill="#1A1A1A" fill-opacity="0.15" />
    </g>
  </g>

  <g id="page-footer">
    <text x="1216" y="688" font-family="Arial, &quot;Microsoft YaHei&quot;, sans-serif" font-size="11" fill="#999999" text-anchor="end" letter-spacing="1">08 / 14</text>
  </g>
</svg>