<svg xmlns="http://www.w3.org/2000/svg" viewBox="0 0 1280 720" width="1280" height="720">
  

  <g id="bg">
    <rect width="1280" height="720" fill="#FFF8EE" />
  </g>

  
  <g id="header">
    <rect x="60" y="55" width="14" height="60" fill="#FF6B4A" />
    <text x="90" y="95" font-family="Impact, &quot;Arial Black&quot;, sans-serif" font-size="48" font-weight="900" fill="#1A1A2E" letter-spacing="1">SEVEN DAYS OF SUGAR</text>
    <text x="90" y="125" font-family="Arial, &quot;Microsoft YaHei&quot;, sans-serif" font-size="18" font-weight="700" fill="#5C5C7A" letter-spacing="3">7.18 — 7.24 · 一周完整日程</text>
    
    <path fill="#1A1A2E" d="M1034,58 H1196 A24,24 0 0 1 1220,82 V82 A24,24 0 0 1 1196,106 H1034 A24,24 0 0 1 1010,82 V82 A24,24 0 0 1 1034,58 Z" />
    
  <g transform="translate(1024.0, 70.0) scale(1.5)" fill="#FFD93D">
    <path fill-rule="evenodd" clip-rule="evenodd" d="M8 16C12.4183 16 16 12.4183 16 8C16 3.58172 12.4183 0 8 0C3.58172 0 0 3.58172 0 8C0 12.4183 3.58172 16 8 16ZM7 3V8.41421L10.2929 11.7071L11.7071 10.2929L9 7.58579V3H7Z" />
  </g>
    <text x="1115" y="88" text-anchor="middle" font-family="Impact, sans-serif" font-size="14" font-weight="900" fill="#FFF8EE" letter-spacing="2">12 HR / DAY · 7 DAYS</text>
  </g>

  
  <g id="timeline-track">
    <line x1="120" y1="320" x2="1160" y2="320" stroke="#1A1A2E" stroke-width="4" stroke-linecap="round" />
    
    <line x1="120" y1="320" x2="1160" y2="320" stroke="#FF3DA5" stroke-width="2" stroke-dasharray="8,8" opacity="0.7" />
  </g>

  
  <g id="day-1">
    <line x1="180" y1="280" x2="180" y2="320" stroke="#1A1A2E" stroke-width="2" stroke-dasharray="3,3" />
    <circle cx="180" cy="320" r="22" fill="#FF3DA5" stroke="#1A1A2E" stroke-width="4" />
    <text x="180" y="328" text-anchor="middle" font-family="Impact, sans-serif" font-size="16" font-weight="900" fill="#FFF8EE">1</text>
    <path fill="#FFF8EE" stroke="#1A1A2E" stroke-width="3" d="M117,170 H243 A12,12 0 0 1 255,182 V268 A12,12 0 0 1 243,280 H117 A12,12 0 0 1 105,268 V182 A12,12 0 0 1 117,170 Z" />
    <rect x="105" y="170" width="150" height="28" fill="#FF3DA5" />
    <text x="180" y="190" text-anchor="middle" font-family="Impact, sans-serif" font-size="13" font-weight="900" fill="#1A1A2E" letter-spacing="2">7.18</text>
    <text x="180" y="226" text-anchor="middle" font-family="Impact, sans-serif" font-size="16" font-weight="900" fill="#1A1A2E">OPENING</text>
    <text x="180" y="248" text-anchor="middle" font-family="Arial, &quot;Microsoft YaHei&quot;, sans-serif" font-size="13" font-weight="700" fill="#FF3DA5">开幕之夜</text>
    <text x="180" y="268" text-anchor="middle" font-family="Arial, &quot;Microsoft YaHei&quot;, sans-serif" font-size="11" font-weight="600" fill="#5C5C7A">CHERRY BOMB 开场</text>
  </g>

  
  <g id="day-2">
    <line x1="320" y1="320" x2="320" y2="360" stroke="#1A1A2E" stroke-width="2" stroke-dasharray="3,3" />
    <circle cx="320" cy="320" r="22" fill="#FF3DA5" stroke="#1A1A2E" stroke-width="4" />
    <text x="320" y="328" text-anchor="middle" font-family="Impact, sans-serif" font-size="16" font-weight="900" fill="#FFF8EE">2</text>
    <path fill="#FFF8EE" stroke="#1A1A2E" stroke-width="3" d="M257,360 H383 A12,12 0 0 1 395,372 V458 A12,12 0 0 1 383,470 H257 A12,12 0 0 1 245,458 V372 A12,12 0 0 1 257,360 Z" />
    <rect x="245" y="442" width="150" height="28" fill="#FF3DA5" />
    <text x="320" y="462" text-anchor="middle" font-family="Impact, sans-serif" font-size="13" font-weight="900" fill="#1A1A2E" letter-spacing="2">7.19</text>
    <text x="320" y="392" text-anchor="middle" font-family="Impact, sans-serif" font-size="16" font-weight="900" fill="#1A1A2E">ROCK DAY</text>
    <text x="320" y="414" text-anchor="middle" font-family="Arial, &quot;Microsoft YaHei&quot;, sans-serif" font-size="13" font-weight="700" fill="#FF3DA5">摇滚日</text>
    <text x="320" y="432" text-anchor="middle" font-family="Arial, &quot;Microsoft YaHei&quot;, sans-serif" font-size="11" font-weight="600" fill="#5C5C7A">25 组 · CHERRY STAGE</text>
  </g>

  
  <g id="day-3">
    <line x1="460" y1="280" x2="460" y2="320" stroke="#1A1A2E" stroke-width="2" stroke-dasharray="3,3" />
    <circle cx="460" cy="320" r="22" fill="#00B8D9" stroke="#1A1A2E" stroke-width="4" />
    <text x="460" y="328" text-anchor="middle" font-family="Impact, sans-serif" font-size="16" font-weight="900" fill="#FFF8EE">3</text>
    <path fill="#FFF8EE" stroke="#1A1A2E" stroke-width="3" d="M397,170 H523 A12,12 0 0 1 535,182 V268 A12,12 0 0 1 523,280 H397 A12,12 0 0 1 385,268 V182 A12,12 0 0 1 397,170 Z" />
    <rect x="385" y="170" width="150" height="28" fill="#00B8D9" />
    <text x="460" y="190" text-anchor="middle" font-family="Impact, sans-serif" font-size="13" font-weight="900" fill="#1A1A2E" letter-spacing="2">7.20</text>
    <text x="460" y="226" text-anchor="middle" font-family="Impact, sans-serif" font-size="16" font-weight="900" fill="#1A1A2E">ELECTRO</text>
    <text x="460" y="248" text-anchor="middle" font-family="Arial, &quot;Microsoft YaHei&quot;, sans-serif" font-size="13" font-weight="700" fill="#00B8D9">电子之夜</text>
    <text x="460" y="268" text-anchor="middle" font-family="Arial, &quot;Microsoft YaHei&quot;, sans-serif" font-size="11" font-weight="600" fill="#5C5C7A">通宵 12h · NEON GRID</text>
  </g>

  
  <g id="day-4">
    <line x1="600" y1="320" x2="600" y2="360" stroke="#1A1A2E" stroke-width="2" stroke-dasharray="3,3" />
    <circle cx="600" cy="320" r="22" fill="#00C896" stroke="#1A1A2E" stroke-width="4" />
    <text x="600" y="328" text-anchor="middle" font-family="Impact, sans-serif" font-size="16" font-weight="900" fill="#FFF8EE">4</text>
    <path fill="#FFF8EE" stroke="#1A1A2E" stroke-width="3" d="M537,360 H663 A12,12 0 0 1 675,372 V458 A12,12 0 0 1 663,470 H537 A12,12 0 0 1 525,458 V372 A12,12 0 0 1 537,360 Z" />
    <rect x="525" y="442" width="150" height="28" fill="#00C896" />
    <text x="600" y="462" text-anchor="middle" font-family="Impact, sans-serif" font-size="13" font-weight="900" fill="#1A1A2E" letter-spacing="2">7.21</text>
    <text x="600" y="392" text-anchor="middle" font-family="Impact, sans-serif" font-size="16" font-weight="900" fill="#1A1A2E">FOLK</text>
    <text x="600" y="414" text-anchor="middle" font-family="Arial, &quot;Microsoft YaHei&quot;, sans-serif" font-size="13" font-weight="700" fill="#00C896">民谣午后</text>
    <text x="600" y="432" text-anchor="middle" font-family="Arial, &quot;Microsoft YaHei&quot;, sans-serif" font-size="11" font-weight="600" fill="#5C5C7A">15 组 · MINT GROVE</text>
  </g>

  
  <g id="day-5">
    <line x1="740" y1="280" x2="740" y2="320" stroke="#1A1A2E" stroke-width="2" stroke-dasharray="3,3" />
    <circle cx="740" cy="320" r="22" fill="#FFD93D" stroke="#1A1A2E" stroke-width="4" />
    <text x="740" y="328" text-anchor="middle" font-family="Impact, sans-serif" font-size="16" font-weight="900" fill="#1A1A2E">5</text>
    <path fill="#FFF8EE" stroke="#1A1A2E" stroke-width="3" d="M677,170 H803 A12,12 0 0 1 815,182 V268 A12,12 0 0 1 803,280 H677 A12,12 0 0 1 665,268 V182 A12,12 0 0 1 677,170 Z" />
    <rect x="665" y="170" width="150" height="28" fill="#FFD93D" />
    <text x="740" y="190" text-anchor="middle" font-family="Impact, sans-serif" font-size="13" font-weight="900" fill="#1A1A2E" letter-spacing="2">7.22</text>
    <text x="740" y="226" text-anchor="middle" font-family="Impact, sans-serif" font-size="16" font-weight="900" fill="#1A1A2E">HIPHOP</text>
    <text x="740" y="248" text-anchor="middle" font-family="Arial, &quot;Microsoft YaHei&quot;, sans-serif" font-size="13" font-weight="700" fill="#FF6B4A">嘻哈午夜</text>
    <text x="740" y="268" text-anchor="middle" font-family="Arial, &quot;Microsoft YaHei&quot;, sans-serif" font-size="11" font-weight="600" fill="#5C5C7A">10 组 · YELLOW BLOCK</text>
  </g>

  
  <g id="day-6">
    <line x1="880" y1="320" x2="880" y2="360" stroke="#1A1A2E" stroke-width="2" stroke-dasharray="3,3" />
    <circle cx="880" cy="320" r="22" fill="#FF6B4A" stroke="#1A1A2E" stroke-width="4" />
    <text x="880" y="328" text-anchor="middle" font-family="Impact, sans-serif" font-size="16" font-weight="900" fill="#FFF8EE">6</text>
    <path fill="#FFF8EE" stroke="#1A1A2E" stroke-width="3" d="M817,360 H943 A12,12 0 0 1 955,372 V458 A12,12 0 0 1 943,470 H817 A12,12 0 0 1 805,458 V372 A12,12 0 0 1 817,360 Z" />
    <rect x="805" y="442" width="150" height="28" fill="#FF6B4A" />
    <text x="880" y="462" text-anchor="middle" font-family="Impact, sans-serif" font-size="13" font-weight="900" fill="#FFF8EE" letter-spacing="2">7.23</text>
    <text x="880" y="392" text-anchor="middle" font-family="Impact, sans-serif" font-size="16" font-weight="900" fill="#1A1A2E">CROSSOVER</text>
    <text x="880" y="414" text-anchor="middle" font-family="Arial, &quot;Microsoft YaHei&quot;, sans-serif" font-size="13" font-weight="700" fill="#FF6B4A">跨界之夜</text>
    <text x="880" y="432" text-anchor="middle" font-family="Arial, &quot;Microsoft YaHei&quot;, sans-serif" font-size="11" font-weight="600" fill="#5C5C7A">4 大头牌同台</text>
  </g>

  
  <g id="day-7">
    <line x1="1020" y1="280" x2="1020" y2="320" stroke="#1A1A2E" stroke-width="2" stroke-dasharray="3,3" />
    <circle cx="1020" cy="320" r="30" fill="#FF3DA5" stroke="#1A1A2E" stroke-width="4" />
    
  <g transform="translate(1004.0, 304.0) scale(2.0)" fill="#FFF8EE">
    <path d="M9.00001 0H7.00001L5.51292 4.57681L0.700554 4.57682L0.0825195 6.47893L3.97581 9.30756L2.48873 13.8843L4.10677 15.0599L8.00002 12.2313L11.8933 15.0599L13.5113 13.8843L12.0242 9.30754L15.9175 6.47892L15.2994 4.57681L10.4871 4.57681L9.00001 0Z" />
  </g>
    <path fill="#1A1A2E" stroke="#FF3DA5" stroke-width="4" d="M957,170 H1093 A12,12 0 0 1 1105,182 V268 A12,12 0 0 1 1093,280 H957 A12,12 0 0 1 945,268 V182 A12,12 0 0 1 957,170 Z" />
    <rect x="945" y="170" width="160" height="28" fill="#FFD93D" />
    <text x="1025" y="190" text-anchor="middle" font-family="Impact, sans-serif" font-size="13" font-weight="900" fill="#1A1A2E" letter-spacing="2">7.24 · FINALE</text>
    <text x="1025" y="226" text-anchor="middle" font-family="Impact, sans-serif" font-size="16" font-weight="900" fill="#FFF8EE">CLOSING</text>
    <text x="1025" y="248" text-anchor="middle" font-family="Arial, &quot;Microsoft YaHei&quot;, sans-serif" font-size="13" font-weight="700" fill="#FF3DA5">闭幕大狂欢</text>
    <text x="1025" y="268" text-anchor="middle" font-family="Arial, &quot;Microsoft YaHei&quot;, sans-serif" font-size="11" font-weight="600" fill="#FFF8EE">SUGAR DOME · 烟花</text>
  </g>

  
  <g id="dow-labels">
    <text x="180" y="540" text-anchor="middle" font-family="Impact, sans-serif" font-size="13" font-weight="900" fill="#1A1A2E" letter-spacing="2">SAT</text>
    <text x="320" y="540" text-anchor="middle" font-family="Impact, sans-serif" font-size="13" font-weight="900" fill="#1A1A2E" letter-spacing="2">SUN</text>
    <text x="460" y="540" text-anchor="middle" font-family="Impact, sans-serif" font-size="13" font-weight="900" fill="#1A1A2E" letter-spacing="2">MON</text>
    <text x="600" y="540" text-anchor="middle" font-family="Impact, sans-serif" font-size="13" font-weight="900" fill="#1A1A2E" letter-spacing="2">TUE</text>
    <text x="740" y="540" text-anchor="middle" font-family="Impact, sans-serif" font-size="13" font-weight="900" fill="#1A1A2E" letter-spacing="2">WED</text>
    <text x="880" y="540" text-anchor="middle" font-family="Impact, sans-serif" font-size="13" font-weight="900" fill="#1A1A2E" letter-spacing="2">THU</text>
    <text x="1020" y="540" text-anchor="middle" font-family="Impact, sans-serif" font-size="13" font-weight="900" fill="#1A1A2E" letter-spacing="2">FRI</text>
  </g>

  
  <g id="legend">
    <path fill="#1A1A2E" d="M72,580 H1208 A12,12 0 0 1 1220,592 V648 A12,12 0 0 1 1208,660 H72 A12,12 0 0 1 60,648 V592 A12,12 0 0 1 72,580 Z" />
    
  <g transform="translate(86.0, 610.0) scale(2.0)" fill="#FFD93D">
    <path fill-rule="evenodd" clip-rule="evenodd" d="M8 16C12.4183 16 16 12.4183 16 8C16 3.58172 12.4183 0 8 0C3.58172 0 0 3.58172 0 8C0 12.4183 3.58172 16 8 16ZM7 3V8.41421L10.2929 11.7071L11.7071 10.2929L9 7.58579V3H7Z" />
  </g>
    <text x="130" y="622" font-family="Impact, sans-serif" font-size="18" font-weight="900" fill="#FFD93D" letter-spacing="2">DAILY SCHEDULE</text>
    <text x="130" y="648" font-family="Arial, &quot;Microsoft YaHei&quot;, sans-serif" font-size="14" font-weight="600" fill="#FFF8EE">每天 16:00 入场 · 17:00 开演 · 次日 04:00 结束 · 5 个舞台同时进行</text>
    
    <path fill="#FF3DA5" d="M962,608 H1178 A22,22 0 0 1 1200,630 V630 A22,22 0 0 1 1178,652 H962 A22,22 0 0 1 940,630 V630 A22,22 0 0 1 962,608 Z" />
    <text x="1070" y="635" text-anchor="middle" font-family="Impact, &quot;Arial Black&quot;, sans-serif" font-size="16" font-weight="900" fill="#FFF8EE" letter-spacing="3">DOWNLOAD APP →</text>
  </g>

  
  <g id="footer">
    <text x="60" y="700" font-family="Arial, sans-serif" font-size="12" font-weight="600" fill="#5C5C7A">具体演出时间以 APP 内日程为准</text>
    <text x="1220" y="700" text-anchor="end" font-family="Impact, sans-serif" font-size="14" font-weight="900" fill="#1A1A2E" letter-spacing="3">10 / 14</text>
  </g>
</svg>